%TF.GenerationSoftware,KiCad,Pcbnew,7.0.5*%
%TF.CreationDate,2024-04-02T13:29:21+05:30*%
%TF.ProjectId,RPFC_V0A,52504643-5f56-4304-912e-6b696361645f,rev?*%
%TF.SameCoordinates,Original*%
%TF.FileFunction,Soldermask,Bot*%
%TF.FilePolarity,Negative*%
%FSLAX46Y46*%
G04 Gerber Fmt 4.6, Leading zero omitted, Abs format (unit mm)*
G04 Created by KiCad (PCBNEW 7.0.5) date 2024-04-02 13:29:21*
%MOMM*%
%LPD*%
G01*
G04 APERTURE LIST*
%ADD10R,1.600000X1.600000*%
%ADD11R,2.200000X2.200000*%
%ADD12O,2.200000X2.200000*%
%ADD13C,2.200000*%
%ADD14R,1.500000X1.050000*%
%ADD15O,1.500000X1.050000*%
%ADD16C,1.524000*%
%ADD17O,1.600000X1.600000*%
G04 APERTURE END LIST*
D10*
%TO.C,H10*%
X80000000Y-150000000D03*
%TD*%
%TO.C,H9*%
X86000000Y-150000000D03*
%TD*%
D11*
%TO.C,D8*%
X55300000Y-151730000D03*
D12*
X55300000Y-161890000D03*
%TD*%
D11*
%TO.C,D1*%
X55300000Y-32320000D03*
D12*
X55300000Y-42480000D03*
%TD*%
D13*
%TO.C,TB5*%
X25700000Y-98960000D03*
X25700000Y-104040000D03*
%TD*%
D12*
%TO.C,D3*%
X55300000Y-77380000D03*
D11*
X55300000Y-67220000D03*
%TD*%
D10*
%TO.C,H8*%
X98825000Y-76170000D03*
%TD*%
D14*
%TO.C,Q4*%
X61400000Y-73200000D03*
D15*
X61400000Y-71930000D03*
X61400000Y-70660000D03*
%TD*%
D16*
%TO.C,SW4*%
X50600000Y-89040000D03*
X48600000Y-83040000D03*
X48600000Y-95040000D03*
X36400000Y-95040000D03*
X36400000Y-83040000D03*
%TD*%
%TO.C,SW7*%
X50600000Y-139650000D03*
X48600000Y-133650000D03*
X48600000Y-145650000D03*
X36400000Y-145650000D03*
X36400000Y-133650000D03*
%TD*%
D14*
%TO.C,Q6*%
X61400000Y-107140000D03*
D15*
X61400000Y-105870000D03*
X61400000Y-104600000D03*
%TD*%
D14*
%TO.C,Q3*%
X61400000Y-55740000D03*
D15*
X61400000Y-54470000D03*
X61400000Y-53200000D03*
%TD*%
D14*
%TO.C,Q1*%
X61400000Y-38770000D03*
D15*
X61400000Y-37500000D03*
X61400000Y-36230000D03*
%TD*%
D16*
%TO.C,SW6*%
X50600000Y-122800000D03*
X48600000Y-116800000D03*
X48600000Y-128800000D03*
X36400000Y-128800000D03*
X36400000Y-116800000D03*
%TD*%
%TO.C,SW8*%
X50600000Y-156700000D03*
X48600000Y-150700000D03*
X48600000Y-162700000D03*
X36400000Y-162700000D03*
X36400000Y-150700000D03*
%TD*%
%TO.C,SW2*%
X50600000Y-54590000D03*
X48600000Y-48590000D03*
X48600000Y-60590000D03*
X36400000Y-60590000D03*
X36400000Y-48590000D03*
%TD*%
D11*
%TO.C,D4*%
X54850000Y-83360000D03*
D12*
X54850000Y-93520000D03*
%TD*%
D13*
%TO.C,TB4*%
X25700000Y-86600000D03*
X25700000Y-91680000D03*
%TD*%
D16*
%TO.C,SW3*%
X36400000Y-66130000D03*
X36400000Y-78130000D03*
X48600000Y-78130000D03*
X48600000Y-66130000D03*
X50600000Y-72130000D03*
%TD*%
%TO.C,SW5*%
X50600000Y-105900000D03*
X48600000Y-99900000D03*
X48600000Y-111900000D03*
X36400000Y-111900000D03*
X36400000Y-99900000D03*
%TD*%
D10*
%TO.C,H7*%
X98825000Y-73630000D03*
%TD*%
%TO.C,A1*%
X94115000Y-109170000D03*
D17*
X94115000Y-106630000D03*
X94115000Y-104090000D03*
X94115000Y-101550000D03*
X94115000Y-99010000D03*
X94115000Y-96470000D03*
X94115000Y-93930000D03*
X94115000Y-91390000D03*
X94115000Y-88850000D03*
X94115000Y-86310000D03*
X94115000Y-83770000D03*
X94115000Y-81230000D03*
X94115000Y-78690000D03*
X94115000Y-76150000D03*
X94115000Y-73610000D03*
X78875000Y-73610000D03*
X78875000Y-76150000D03*
X78875000Y-78690000D03*
X78875000Y-81230000D03*
X78875000Y-83770000D03*
X78875000Y-86310000D03*
X78875000Y-88850000D03*
X78875000Y-91390000D03*
X78875000Y-93930000D03*
X78875000Y-96470000D03*
X78875000Y-99010000D03*
X78875000Y-101550000D03*
X78875000Y-104090000D03*
X78875000Y-106630000D03*
X78875000Y-109170000D03*
%TD*%
D10*
%TO.C,H6*%
X74615000Y-73610000D03*
%TD*%
D14*
%TO.C,Q2*%
X61400000Y-124140000D03*
D15*
X61400000Y-122870000D03*
X61400000Y-121600000D03*
%TD*%
D13*
%TO.C,TB3*%
X25700000Y-74220000D03*
X25700000Y-79300000D03*
%TD*%
D14*
%TO.C,Q8*%
X61400000Y-158000000D03*
D15*
X61400000Y-156730000D03*
X61400000Y-155460000D03*
%TD*%
D13*
%TO.C,TB2*%
X25700000Y-61060000D03*
X25700000Y-66140000D03*
%TD*%
D16*
%TO.C,SW1*%
X50600000Y-37500000D03*
X48600000Y-31500000D03*
X48600000Y-43500000D03*
X36400000Y-43500000D03*
X36400000Y-31500000D03*
%TD*%
D10*
%TO.C,H3*%
X98825000Y-83790000D03*
%TD*%
D16*
%TO.C,U1*%
X74730000Y-122490000D03*
X74730000Y-125030000D03*
X74730000Y-127570000D03*
X74730000Y-130110000D03*
X74730000Y-132650000D03*
X74730000Y-135190000D03*
X96730000Y-137690000D03*
X96730000Y-135150000D03*
X96730000Y-132610000D03*
X96730000Y-130070000D03*
X96730000Y-127530000D03*
X96730000Y-124990000D03*
%TD*%
D10*
%TO.C,H5*%
X98825000Y-78670000D03*
%TD*%
D11*
%TO.C,D7*%
X55300000Y-134320000D03*
D12*
X55300000Y-144480000D03*
%TD*%
D13*
%TO.C,TB6*%
X25700000Y-111360000D03*
X25700000Y-116440000D03*
%TD*%
D14*
%TO.C,Q5*%
X61400000Y-89670000D03*
D15*
X61400000Y-88400000D03*
X61400000Y-87130000D03*
%TD*%
D10*
%TO.C,H2*%
X98825000Y-81250000D03*
%TD*%
D11*
%TO.C,D6*%
X55300000Y-117600000D03*
D12*
X55300000Y-127760000D03*
%TD*%
D11*
%TO.C,D2*%
X55300000Y-49510000D03*
D12*
X55300000Y-59670000D03*
%TD*%
D13*
%TO.C,TB1*%
X72220000Y-160985000D03*
X77300000Y-160985000D03*
%TD*%
D11*
%TO.C,D5*%
X55300000Y-100720000D03*
D12*
X55300000Y-110880000D03*
%TD*%
D10*
%TO.C,H1*%
X98825000Y-92640000D03*
D17*
X98825000Y-95180000D03*
X98825000Y-97720000D03*
X98825000Y-100260000D03*
%TD*%
D10*
%TO.C,H4*%
X98825000Y-86330000D03*
%TD*%
D14*
%TO.C,Q7*%
X61440000Y-140570000D03*
D15*
X61440000Y-139300000D03*
X61440000Y-138030000D03*
%TD*%
M02*
