%TF.GenerationSoftware,KiCad,Pcbnew,7.0.5*%
%TF.CreationDate,2024-04-02T13:29:20+05:30*%
%TF.ProjectId,RPFC_V0A,52504643-5f56-4304-912e-6b696361645f,rev?*%
%TF.SameCoordinates,Original*%
%TF.FileFunction,Legend,Top*%
%TF.FilePolarity,Positive*%
%FSLAX46Y46*%
G04 Gerber Fmt 4.6, Leading zero omitted, Abs format (unit mm)*
G04 Created by KiCad (PCBNEW 7.0.5) date 2024-04-02 13:29:20*
%MOMM*%
%LPD*%
G01*
G04 APERTURE LIST*
%ADD10C,0.300000*%
%ADD11C,0.100000*%
%ADD12C,0.150000*%
%ADD13C,0.120000*%
G04 APERTURE END LIST*
D10*
X88129171Y-29554510D02*
X89629171Y-29554510D01*
X89629171Y-29554510D02*
X89629171Y-29911653D01*
X89629171Y-29911653D02*
X89557742Y-30125939D01*
X89557742Y-30125939D02*
X89414885Y-30268796D01*
X89414885Y-30268796D02*
X89272028Y-30340225D01*
X89272028Y-30340225D02*
X88986314Y-30411653D01*
X88986314Y-30411653D02*
X88772028Y-30411653D01*
X88772028Y-30411653D02*
X88486314Y-30340225D01*
X88486314Y-30340225D02*
X88343457Y-30268796D01*
X88343457Y-30268796D02*
X88200600Y-30125939D01*
X88200600Y-30125939D02*
X88129171Y-29911653D01*
X88129171Y-29911653D02*
X88129171Y-29554510D01*
X88129171Y-31054510D02*
X89629171Y-31054510D01*
X88200600Y-31697368D02*
X88129171Y-31911654D01*
X88129171Y-31911654D02*
X88129171Y-32268796D01*
X88129171Y-32268796D02*
X88200600Y-32411654D01*
X88200600Y-32411654D02*
X88272028Y-32483082D01*
X88272028Y-32483082D02*
X88414885Y-32554511D01*
X88414885Y-32554511D02*
X88557742Y-32554511D01*
X88557742Y-32554511D02*
X88700600Y-32483082D01*
X88700600Y-32483082D02*
X88772028Y-32411654D01*
X88772028Y-32411654D02*
X88843457Y-32268796D01*
X88843457Y-32268796D02*
X88914885Y-31983082D01*
X88914885Y-31983082D02*
X88986314Y-31840225D01*
X88986314Y-31840225D02*
X89057742Y-31768796D01*
X89057742Y-31768796D02*
X89200600Y-31697368D01*
X89200600Y-31697368D02*
X89343457Y-31697368D01*
X89343457Y-31697368D02*
X89486314Y-31768796D01*
X89486314Y-31768796D02*
X89557742Y-31840225D01*
X89557742Y-31840225D02*
X89629171Y-31983082D01*
X89629171Y-31983082D02*
X89629171Y-32340225D01*
X89629171Y-32340225D02*
X89557742Y-32554511D01*
X88129171Y-33197367D02*
X89629171Y-33197367D01*
X89629171Y-33197367D02*
X89629171Y-33768796D01*
X89629171Y-33768796D02*
X89557742Y-33911653D01*
X89557742Y-33911653D02*
X89486314Y-33983082D01*
X89486314Y-33983082D02*
X89343457Y-34054510D01*
X89343457Y-34054510D02*
X89129171Y-34054510D01*
X89129171Y-34054510D02*
X88986314Y-33983082D01*
X88986314Y-33983082D02*
X88914885Y-33911653D01*
X88914885Y-33911653D02*
X88843457Y-33768796D01*
X88843457Y-33768796D02*
X88843457Y-33197367D01*
X88129171Y-35411653D02*
X88129171Y-34697367D01*
X88129171Y-34697367D02*
X89629171Y-34697367D01*
X88557742Y-35840225D02*
X88557742Y-36554511D01*
X88129171Y-35697368D02*
X89629171Y-36197368D01*
X89629171Y-36197368D02*
X88129171Y-36697368D01*
X88272028Y-38054510D02*
X88200600Y-37983082D01*
X88200600Y-37983082D02*
X88129171Y-37768796D01*
X88129171Y-37768796D02*
X88129171Y-37625939D01*
X88129171Y-37625939D02*
X88200600Y-37411653D01*
X88200600Y-37411653D02*
X88343457Y-37268796D01*
X88343457Y-37268796D02*
X88486314Y-37197367D01*
X88486314Y-37197367D02*
X88772028Y-37125939D01*
X88772028Y-37125939D02*
X88986314Y-37125939D01*
X88986314Y-37125939D02*
X89272028Y-37197367D01*
X89272028Y-37197367D02*
X89414885Y-37268796D01*
X89414885Y-37268796D02*
X89557742Y-37411653D01*
X89557742Y-37411653D02*
X89629171Y-37625939D01*
X89629171Y-37625939D02*
X89629171Y-37768796D01*
X89629171Y-37768796D02*
X89557742Y-37983082D01*
X89557742Y-37983082D02*
X89486314Y-38054510D01*
X88129171Y-38697367D02*
X89629171Y-38697367D01*
X89629171Y-38697367D02*
X88557742Y-39197367D01*
X88557742Y-39197367D02*
X89629171Y-39697367D01*
X89629171Y-39697367D02*
X88129171Y-39697367D01*
X88914885Y-40411653D02*
X88914885Y-40911653D01*
X88129171Y-41125939D02*
X88129171Y-40411653D01*
X88129171Y-40411653D02*
X89629171Y-40411653D01*
X89629171Y-40411653D02*
X89629171Y-41125939D01*
X88129171Y-41768796D02*
X89629171Y-41768796D01*
X89629171Y-41768796D02*
X88129171Y-42625939D01*
X88129171Y-42625939D02*
X89629171Y-42625939D01*
X89629171Y-43125940D02*
X89629171Y-43983083D01*
X88129171Y-43554511D02*
X89629171Y-43554511D01*
X88129171Y-45625939D02*
X89629171Y-45625939D01*
X89629171Y-45625939D02*
X89629171Y-46197368D01*
X89629171Y-46197368D02*
X89557742Y-46340225D01*
X89557742Y-46340225D02*
X89486314Y-46411654D01*
X89486314Y-46411654D02*
X89343457Y-46483082D01*
X89343457Y-46483082D02*
X89129171Y-46483082D01*
X89129171Y-46483082D02*
X88986314Y-46411654D01*
X88986314Y-46411654D02*
X88914885Y-46340225D01*
X88914885Y-46340225D02*
X88843457Y-46197368D01*
X88843457Y-46197368D02*
X88843457Y-45625939D01*
X89629171Y-47411654D02*
X89629171Y-47697368D01*
X89629171Y-47697368D02*
X89557742Y-47840225D01*
X89557742Y-47840225D02*
X89414885Y-47983082D01*
X89414885Y-47983082D02*
X89129171Y-48054511D01*
X89129171Y-48054511D02*
X88629171Y-48054511D01*
X88629171Y-48054511D02*
X88343457Y-47983082D01*
X88343457Y-47983082D02*
X88200600Y-47840225D01*
X88200600Y-47840225D02*
X88129171Y-47697368D01*
X88129171Y-47697368D02*
X88129171Y-47411654D01*
X88129171Y-47411654D02*
X88200600Y-47268797D01*
X88200600Y-47268797D02*
X88343457Y-47125939D01*
X88343457Y-47125939D02*
X88629171Y-47054511D01*
X88629171Y-47054511D02*
X89129171Y-47054511D01*
X89129171Y-47054511D02*
X89414885Y-47125939D01*
X89414885Y-47125939D02*
X89557742Y-47268797D01*
X89557742Y-47268797D02*
X89629171Y-47411654D01*
X89629171Y-48554511D02*
X88129171Y-48911654D01*
X88129171Y-48911654D02*
X89200600Y-49197368D01*
X89200600Y-49197368D02*
X88129171Y-49483083D01*
X88129171Y-49483083D02*
X89629171Y-49840226D01*
X88914885Y-50411654D02*
X88914885Y-50911654D01*
X88129171Y-51125940D02*
X88129171Y-50411654D01*
X88129171Y-50411654D02*
X89629171Y-50411654D01*
X89629171Y-50411654D02*
X89629171Y-51125940D01*
X88129171Y-52625940D02*
X88843457Y-52125940D01*
X88129171Y-51768797D02*
X89629171Y-51768797D01*
X89629171Y-51768797D02*
X89629171Y-52340226D01*
X89629171Y-52340226D02*
X89557742Y-52483083D01*
X89557742Y-52483083D02*
X89486314Y-52554512D01*
X89486314Y-52554512D02*
X89343457Y-52625940D01*
X89343457Y-52625940D02*
X89129171Y-52625940D01*
X89129171Y-52625940D02*
X88986314Y-52554512D01*
X88986314Y-52554512D02*
X88914885Y-52483083D01*
X88914885Y-52483083D02*
X88843457Y-52340226D01*
X88843457Y-52340226D02*
X88843457Y-51768797D01*
X88914885Y-54911654D02*
X88914885Y-54411654D01*
X88129171Y-54411654D02*
X89629171Y-54411654D01*
X89629171Y-54411654D02*
X89629171Y-55125940D01*
X88557742Y-55625940D02*
X88557742Y-56340226D01*
X88129171Y-55483083D02*
X89629171Y-55983083D01*
X89629171Y-55983083D02*
X88129171Y-56483083D01*
X88272028Y-57840225D02*
X88200600Y-57768797D01*
X88200600Y-57768797D02*
X88129171Y-57554511D01*
X88129171Y-57554511D02*
X88129171Y-57411654D01*
X88129171Y-57411654D02*
X88200600Y-57197368D01*
X88200600Y-57197368D02*
X88343457Y-57054511D01*
X88343457Y-57054511D02*
X88486314Y-56983082D01*
X88486314Y-56983082D02*
X88772028Y-56911654D01*
X88772028Y-56911654D02*
X88986314Y-56911654D01*
X88986314Y-56911654D02*
X89272028Y-56983082D01*
X89272028Y-56983082D02*
X89414885Y-57054511D01*
X89414885Y-57054511D02*
X89557742Y-57197368D01*
X89557742Y-57197368D02*
X89629171Y-57411654D01*
X89629171Y-57411654D02*
X89629171Y-57554511D01*
X89629171Y-57554511D02*
X89557742Y-57768797D01*
X89557742Y-57768797D02*
X89486314Y-57840225D01*
X89629171Y-58268797D02*
X89629171Y-59125940D01*
X88129171Y-58697368D02*
X89629171Y-58697368D01*
X89629171Y-59911654D02*
X89629171Y-60197368D01*
X89629171Y-60197368D02*
X89557742Y-60340225D01*
X89557742Y-60340225D02*
X89414885Y-60483082D01*
X89414885Y-60483082D02*
X89129171Y-60554511D01*
X89129171Y-60554511D02*
X88629171Y-60554511D01*
X88629171Y-60554511D02*
X88343457Y-60483082D01*
X88343457Y-60483082D02*
X88200600Y-60340225D01*
X88200600Y-60340225D02*
X88129171Y-60197368D01*
X88129171Y-60197368D02*
X88129171Y-59911654D01*
X88129171Y-59911654D02*
X88200600Y-59768797D01*
X88200600Y-59768797D02*
X88343457Y-59625939D01*
X88343457Y-59625939D02*
X88629171Y-59554511D01*
X88629171Y-59554511D02*
X89129171Y-59554511D01*
X89129171Y-59554511D02*
X89414885Y-59625939D01*
X89414885Y-59625939D02*
X89557742Y-59768797D01*
X89557742Y-59768797D02*
X89629171Y-59911654D01*
X88129171Y-62054511D02*
X88843457Y-61554511D01*
X88129171Y-61197368D02*
X89629171Y-61197368D01*
X89629171Y-61197368D02*
X89629171Y-61768797D01*
X89629171Y-61768797D02*
X89557742Y-61911654D01*
X89557742Y-61911654D02*
X89486314Y-61983083D01*
X89486314Y-61983083D02*
X89343457Y-62054511D01*
X89343457Y-62054511D02*
X89129171Y-62054511D01*
X89129171Y-62054511D02*
X88986314Y-61983083D01*
X88986314Y-61983083D02*
X88914885Y-61911654D01*
X88914885Y-61911654D02*
X88843457Y-61768797D01*
X88843457Y-61768797D02*
X88843457Y-61197368D01*
X85857028Y-30411653D02*
X85785600Y-30340225D01*
X85785600Y-30340225D02*
X85714171Y-30125939D01*
X85714171Y-30125939D02*
X85714171Y-29983082D01*
X85714171Y-29983082D02*
X85785600Y-29768796D01*
X85785600Y-29768796D02*
X85928457Y-29625939D01*
X85928457Y-29625939D02*
X86071314Y-29554510D01*
X86071314Y-29554510D02*
X86357028Y-29483082D01*
X86357028Y-29483082D02*
X86571314Y-29483082D01*
X86571314Y-29483082D02*
X86857028Y-29554510D01*
X86857028Y-29554510D02*
X86999885Y-29625939D01*
X86999885Y-29625939D02*
X87142742Y-29768796D01*
X87142742Y-29768796D02*
X87214171Y-29983082D01*
X87214171Y-29983082D02*
X87214171Y-30125939D01*
X87214171Y-30125939D02*
X87142742Y-30340225D01*
X87142742Y-30340225D02*
X87071314Y-30411653D01*
X87214171Y-31340225D02*
X87214171Y-31625939D01*
X87214171Y-31625939D02*
X87142742Y-31768796D01*
X87142742Y-31768796D02*
X86999885Y-31911653D01*
X86999885Y-31911653D02*
X86714171Y-31983082D01*
X86714171Y-31983082D02*
X86214171Y-31983082D01*
X86214171Y-31983082D02*
X85928457Y-31911653D01*
X85928457Y-31911653D02*
X85785600Y-31768796D01*
X85785600Y-31768796D02*
X85714171Y-31625939D01*
X85714171Y-31625939D02*
X85714171Y-31340225D01*
X85714171Y-31340225D02*
X85785600Y-31197368D01*
X85785600Y-31197368D02*
X85928457Y-31054510D01*
X85928457Y-31054510D02*
X86214171Y-30983082D01*
X86214171Y-30983082D02*
X86714171Y-30983082D01*
X86714171Y-30983082D02*
X86999885Y-31054510D01*
X86999885Y-31054510D02*
X87142742Y-31197368D01*
X87142742Y-31197368D02*
X87214171Y-31340225D01*
X85714171Y-33483082D02*
X86428457Y-32983082D01*
X85714171Y-32625939D02*
X87214171Y-32625939D01*
X87214171Y-32625939D02*
X87214171Y-33197368D01*
X87214171Y-33197368D02*
X87142742Y-33340225D01*
X87142742Y-33340225D02*
X87071314Y-33411654D01*
X87071314Y-33411654D02*
X86928457Y-33483082D01*
X86928457Y-33483082D02*
X86714171Y-33483082D01*
X86714171Y-33483082D02*
X86571314Y-33411654D01*
X86571314Y-33411654D02*
X86499885Y-33340225D01*
X86499885Y-33340225D02*
X86428457Y-33197368D01*
X86428457Y-33197368D02*
X86428457Y-32625939D01*
X85714171Y-34983082D02*
X86428457Y-34483082D01*
X85714171Y-34125939D02*
X87214171Y-34125939D01*
X87214171Y-34125939D02*
X87214171Y-34697368D01*
X87214171Y-34697368D02*
X87142742Y-34840225D01*
X87142742Y-34840225D02*
X87071314Y-34911654D01*
X87071314Y-34911654D02*
X86928457Y-34983082D01*
X86928457Y-34983082D02*
X86714171Y-34983082D01*
X86714171Y-34983082D02*
X86571314Y-34911654D01*
X86571314Y-34911654D02*
X86499885Y-34840225D01*
X86499885Y-34840225D02*
X86428457Y-34697368D01*
X86428457Y-34697368D02*
X86428457Y-34125939D01*
X86499885Y-35625939D02*
X86499885Y-36125939D01*
X85714171Y-36340225D02*
X85714171Y-35625939D01*
X85714171Y-35625939D02*
X87214171Y-35625939D01*
X87214171Y-35625939D02*
X87214171Y-36340225D01*
X85857028Y-37840225D02*
X85785600Y-37768797D01*
X85785600Y-37768797D02*
X85714171Y-37554511D01*
X85714171Y-37554511D02*
X85714171Y-37411654D01*
X85714171Y-37411654D02*
X85785600Y-37197368D01*
X85785600Y-37197368D02*
X85928457Y-37054511D01*
X85928457Y-37054511D02*
X86071314Y-36983082D01*
X86071314Y-36983082D02*
X86357028Y-36911654D01*
X86357028Y-36911654D02*
X86571314Y-36911654D01*
X86571314Y-36911654D02*
X86857028Y-36983082D01*
X86857028Y-36983082D02*
X86999885Y-37054511D01*
X86999885Y-37054511D02*
X87142742Y-37197368D01*
X87142742Y-37197368D02*
X87214171Y-37411654D01*
X87214171Y-37411654D02*
X87214171Y-37554511D01*
X87214171Y-37554511D02*
X87142742Y-37768797D01*
X87142742Y-37768797D02*
X87071314Y-37840225D01*
X87214171Y-38268797D02*
X87214171Y-39125940D01*
X85714171Y-38697368D02*
X87214171Y-38697368D01*
X85714171Y-39625939D02*
X87214171Y-39625939D01*
X87214171Y-40625940D02*
X87214171Y-40911654D01*
X87214171Y-40911654D02*
X87142742Y-41054511D01*
X87142742Y-41054511D02*
X86999885Y-41197368D01*
X86999885Y-41197368D02*
X86714171Y-41268797D01*
X86714171Y-41268797D02*
X86214171Y-41268797D01*
X86214171Y-41268797D02*
X85928457Y-41197368D01*
X85928457Y-41197368D02*
X85785600Y-41054511D01*
X85785600Y-41054511D02*
X85714171Y-40911654D01*
X85714171Y-40911654D02*
X85714171Y-40625940D01*
X85714171Y-40625940D02*
X85785600Y-40483083D01*
X85785600Y-40483083D02*
X85928457Y-40340225D01*
X85928457Y-40340225D02*
X86214171Y-40268797D01*
X86214171Y-40268797D02*
X86714171Y-40268797D01*
X86714171Y-40268797D02*
X86999885Y-40340225D01*
X86999885Y-40340225D02*
X87142742Y-40483083D01*
X87142742Y-40483083D02*
X87214171Y-40625940D01*
X85714171Y-41911654D02*
X87214171Y-41911654D01*
X87214171Y-41911654D02*
X85714171Y-42768797D01*
X85714171Y-42768797D02*
X87214171Y-42768797D01*
X87214171Y-44625940D02*
X85999885Y-44625940D01*
X85999885Y-44625940D02*
X85857028Y-44697369D01*
X85857028Y-44697369D02*
X85785600Y-44768798D01*
X85785600Y-44768798D02*
X85714171Y-44911655D01*
X85714171Y-44911655D02*
X85714171Y-45197369D01*
X85714171Y-45197369D02*
X85785600Y-45340226D01*
X85785600Y-45340226D02*
X85857028Y-45411655D01*
X85857028Y-45411655D02*
X85999885Y-45483083D01*
X85999885Y-45483083D02*
X87214171Y-45483083D01*
X85785600Y-46125941D02*
X85714171Y-46340227D01*
X85714171Y-46340227D02*
X85714171Y-46697369D01*
X85714171Y-46697369D02*
X85785600Y-46840227D01*
X85785600Y-46840227D02*
X85857028Y-46911655D01*
X85857028Y-46911655D02*
X85999885Y-46983084D01*
X85999885Y-46983084D02*
X86142742Y-46983084D01*
X86142742Y-46983084D02*
X86285600Y-46911655D01*
X86285600Y-46911655D02*
X86357028Y-46840227D01*
X86357028Y-46840227D02*
X86428457Y-46697369D01*
X86428457Y-46697369D02*
X86499885Y-46411655D01*
X86499885Y-46411655D02*
X86571314Y-46268798D01*
X86571314Y-46268798D02*
X86642742Y-46197369D01*
X86642742Y-46197369D02*
X86785600Y-46125941D01*
X86785600Y-46125941D02*
X86928457Y-46125941D01*
X86928457Y-46125941D02*
X87071314Y-46197369D01*
X87071314Y-46197369D02*
X87142742Y-46268798D01*
X87142742Y-46268798D02*
X87214171Y-46411655D01*
X87214171Y-46411655D02*
X87214171Y-46768798D01*
X87214171Y-46768798D02*
X87142742Y-46983084D01*
X85714171Y-47625940D02*
X87214171Y-47625940D01*
X85714171Y-48340226D02*
X87214171Y-48340226D01*
X87214171Y-48340226D02*
X85714171Y-49197369D01*
X85714171Y-49197369D02*
X87214171Y-49197369D01*
X87142742Y-50697370D02*
X87214171Y-50554513D01*
X87214171Y-50554513D02*
X87214171Y-50340227D01*
X87214171Y-50340227D02*
X87142742Y-50125941D01*
X87142742Y-50125941D02*
X86999885Y-49983084D01*
X86999885Y-49983084D02*
X86857028Y-49911655D01*
X86857028Y-49911655D02*
X86571314Y-49840227D01*
X86571314Y-49840227D02*
X86357028Y-49840227D01*
X86357028Y-49840227D02*
X86071314Y-49911655D01*
X86071314Y-49911655D02*
X85928457Y-49983084D01*
X85928457Y-49983084D02*
X85785600Y-50125941D01*
X85785600Y-50125941D02*
X85714171Y-50340227D01*
X85714171Y-50340227D02*
X85714171Y-50483084D01*
X85714171Y-50483084D02*
X85785600Y-50697370D01*
X85785600Y-50697370D02*
X85857028Y-50768798D01*
X85857028Y-50768798D02*
X86357028Y-50768798D01*
X86357028Y-50768798D02*
X86357028Y-50483084D01*
X85714171Y-53411655D02*
X86428457Y-52911655D01*
X85714171Y-52554512D02*
X87214171Y-52554512D01*
X87214171Y-52554512D02*
X87214171Y-53125941D01*
X87214171Y-53125941D02*
X87142742Y-53268798D01*
X87142742Y-53268798D02*
X87071314Y-53340227D01*
X87071314Y-53340227D02*
X86928457Y-53411655D01*
X86928457Y-53411655D02*
X86714171Y-53411655D01*
X86714171Y-53411655D02*
X86571314Y-53340227D01*
X86571314Y-53340227D02*
X86499885Y-53268798D01*
X86499885Y-53268798D02*
X86428457Y-53125941D01*
X86428457Y-53125941D02*
X86428457Y-52554512D01*
X86499885Y-54054512D02*
X86499885Y-54554512D01*
X85714171Y-54768798D02*
X85714171Y-54054512D01*
X85714171Y-54054512D02*
X87214171Y-54054512D01*
X87214171Y-54054512D02*
X87214171Y-54768798D01*
X86142742Y-55340227D02*
X86142742Y-56054513D01*
X85714171Y-55197370D02*
X87214171Y-55697370D01*
X87214171Y-55697370D02*
X85714171Y-56197370D01*
X85857028Y-57554512D02*
X85785600Y-57483084D01*
X85785600Y-57483084D02*
X85714171Y-57268798D01*
X85714171Y-57268798D02*
X85714171Y-57125941D01*
X85714171Y-57125941D02*
X85785600Y-56911655D01*
X85785600Y-56911655D02*
X85928457Y-56768798D01*
X85928457Y-56768798D02*
X86071314Y-56697369D01*
X86071314Y-56697369D02*
X86357028Y-56625941D01*
X86357028Y-56625941D02*
X86571314Y-56625941D01*
X86571314Y-56625941D02*
X86857028Y-56697369D01*
X86857028Y-56697369D02*
X86999885Y-56768798D01*
X86999885Y-56768798D02*
X87142742Y-56911655D01*
X87142742Y-56911655D02*
X87214171Y-57125941D01*
X87214171Y-57125941D02*
X87214171Y-57268798D01*
X87214171Y-57268798D02*
X87142742Y-57483084D01*
X87142742Y-57483084D02*
X87071314Y-57554512D01*
X87214171Y-57983084D02*
X87214171Y-58840227D01*
X85714171Y-58411655D02*
X87214171Y-58411655D01*
X85714171Y-59340226D02*
X87214171Y-59340226D01*
X87214171Y-59840227D02*
X85714171Y-60340227D01*
X85714171Y-60340227D02*
X87214171Y-60840227D01*
X86499885Y-61340226D02*
X86499885Y-61840226D01*
X85714171Y-62054512D02*
X85714171Y-61340226D01*
X85714171Y-61340226D02*
X87214171Y-61340226D01*
X87214171Y-61340226D02*
X87214171Y-62054512D01*
X83299171Y-29554510D02*
X84799171Y-29554510D01*
X84799171Y-29554510D02*
X84799171Y-30125939D01*
X84799171Y-30125939D02*
X84727742Y-30268796D01*
X84727742Y-30268796D02*
X84656314Y-30340225D01*
X84656314Y-30340225D02*
X84513457Y-30411653D01*
X84513457Y-30411653D02*
X84299171Y-30411653D01*
X84299171Y-30411653D02*
X84156314Y-30340225D01*
X84156314Y-30340225D02*
X84084885Y-30268796D01*
X84084885Y-30268796D02*
X84013457Y-30125939D01*
X84013457Y-30125939D02*
X84013457Y-29554510D01*
X84799171Y-31340225D02*
X84799171Y-31625939D01*
X84799171Y-31625939D02*
X84727742Y-31768796D01*
X84727742Y-31768796D02*
X84584885Y-31911653D01*
X84584885Y-31911653D02*
X84299171Y-31983082D01*
X84299171Y-31983082D02*
X83799171Y-31983082D01*
X83799171Y-31983082D02*
X83513457Y-31911653D01*
X83513457Y-31911653D02*
X83370600Y-31768796D01*
X83370600Y-31768796D02*
X83299171Y-31625939D01*
X83299171Y-31625939D02*
X83299171Y-31340225D01*
X83299171Y-31340225D02*
X83370600Y-31197368D01*
X83370600Y-31197368D02*
X83513457Y-31054510D01*
X83513457Y-31054510D02*
X83799171Y-30983082D01*
X83799171Y-30983082D02*
X84299171Y-30983082D01*
X84299171Y-30983082D02*
X84584885Y-31054510D01*
X84584885Y-31054510D02*
X84727742Y-31197368D01*
X84727742Y-31197368D02*
X84799171Y-31340225D01*
X84799171Y-32483082D02*
X83299171Y-32840225D01*
X83299171Y-32840225D02*
X84370600Y-33125939D01*
X84370600Y-33125939D02*
X83299171Y-33411654D01*
X83299171Y-33411654D02*
X84799171Y-33768797D01*
X84084885Y-34340225D02*
X84084885Y-34840225D01*
X83299171Y-35054511D02*
X83299171Y-34340225D01*
X83299171Y-34340225D02*
X84799171Y-34340225D01*
X84799171Y-34340225D02*
X84799171Y-35054511D01*
X83299171Y-36554511D02*
X84013457Y-36054511D01*
X83299171Y-35697368D02*
X84799171Y-35697368D01*
X84799171Y-35697368D02*
X84799171Y-36268797D01*
X84799171Y-36268797D02*
X84727742Y-36411654D01*
X84727742Y-36411654D02*
X84656314Y-36483083D01*
X84656314Y-36483083D02*
X84513457Y-36554511D01*
X84513457Y-36554511D02*
X84299171Y-36554511D01*
X84299171Y-36554511D02*
X84156314Y-36483083D01*
X84156314Y-36483083D02*
X84084885Y-36411654D01*
X84084885Y-36411654D02*
X84013457Y-36268797D01*
X84013457Y-36268797D02*
X84013457Y-35697368D01*
X83442028Y-39197368D02*
X83370600Y-39125940D01*
X83370600Y-39125940D02*
X83299171Y-38911654D01*
X83299171Y-38911654D02*
X83299171Y-38768797D01*
X83299171Y-38768797D02*
X83370600Y-38554511D01*
X83370600Y-38554511D02*
X83513457Y-38411654D01*
X83513457Y-38411654D02*
X83656314Y-38340225D01*
X83656314Y-38340225D02*
X83942028Y-38268797D01*
X83942028Y-38268797D02*
X84156314Y-38268797D01*
X84156314Y-38268797D02*
X84442028Y-38340225D01*
X84442028Y-38340225D02*
X84584885Y-38411654D01*
X84584885Y-38411654D02*
X84727742Y-38554511D01*
X84727742Y-38554511D02*
X84799171Y-38768797D01*
X84799171Y-38768797D02*
X84799171Y-38911654D01*
X84799171Y-38911654D02*
X84727742Y-39125940D01*
X84727742Y-39125940D02*
X84656314Y-39197368D01*
X84799171Y-40125940D02*
X84799171Y-40411654D01*
X84799171Y-40411654D02*
X84727742Y-40554511D01*
X84727742Y-40554511D02*
X84584885Y-40697368D01*
X84584885Y-40697368D02*
X84299171Y-40768797D01*
X84299171Y-40768797D02*
X83799171Y-40768797D01*
X83799171Y-40768797D02*
X83513457Y-40697368D01*
X83513457Y-40697368D02*
X83370600Y-40554511D01*
X83370600Y-40554511D02*
X83299171Y-40411654D01*
X83299171Y-40411654D02*
X83299171Y-40125940D01*
X83299171Y-40125940D02*
X83370600Y-39983083D01*
X83370600Y-39983083D02*
X83513457Y-39840225D01*
X83513457Y-39840225D02*
X83799171Y-39768797D01*
X83799171Y-39768797D02*
X84299171Y-39768797D01*
X84299171Y-39768797D02*
X84584885Y-39840225D01*
X84584885Y-39840225D02*
X84727742Y-39983083D01*
X84727742Y-39983083D02*
X84799171Y-40125940D01*
X83299171Y-41411654D02*
X84799171Y-41411654D01*
X84799171Y-41411654D02*
X83727742Y-41911654D01*
X83727742Y-41911654D02*
X84799171Y-42411654D01*
X84799171Y-42411654D02*
X83299171Y-42411654D01*
X83299171Y-43125940D02*
X84799171Y-43125940D01*
X84799171Y-43125940D02*
X84799171Y-43697369D01*
X84799171Y-43697369D02*
X84727742Y-43840226D01*
X84727742Y-43840226D02*
X84656314Y-43911655D01*
X84656314Y-43911655D02*
X84513457Y-43983083D01*
X84513457Y-43983083D02*
X84299171Y-43983083D01*
X84299171Y-43983083D02*
X84156314Y-43911655D01*
X84156314Y-43911655D02*
X84084885Y-43840226D01*
X84084885Y-43840226D02*
X84013457Y-43697369D01*
X84013457Y-43697369D02*
X84013457Y-43125940D01*
X84084885Y-44625940D02*
X84084885Y-45125940D01*
X83299171Y-45340226D02*
X83299171Y-44625940D01*
X83299171Y-44625940D02*
X84799171Y-44625940D01*
X84799171Y-44625940D02*
X84799171Y-45340226D01*
X83299171Y-45983083D02*
X84799171Y-45983083D01*
X84799171Y-45983083D02*
X83299171Y-46840226D01*
X83299171Y-46840226D02*
X84799171Y-46840226D01*
X83370600Y-47483084D02*
X83299171Y-47697370D01*
X83299171Y-47697370D02*
X83299171Y-48054512D01*
X83299171Y-48054512D02*
X83370600Y-48197370D01*
X83370600Y-48197370D02*
X83442028Y-48268798D01*
X83442028Y-48268798D02*
X83584885Y-48340227D01*
X83584885Y-48340227D02*
X83727742Y-48340227D01*
X83727742Y-48340227D02*
X83870600Y-48268798D01*
X83870600Y-48268798D02*
X83942028Y-48197370D01*
X83942028Y-48197370D02*
X84013457Y-48054512D01*
X84013457Y-48054512D02*
X84084885Y-47768798D01*
X84084885Y-47768798D02*
X84156314Y-47625941D01*
X84156314Y-47625941D02*
X84227742Y-47554512D01*
X84227742Y-47554512D02*
X84370600Y-47483084D01*
X84370600Y-47483084D02*
X84513457Y-47483084D01*
X84513457Y-47483084D02*
X84656314Y-47554512D01*
X84656314Y-47554512D02*
X84727742Y-47625941D01*
X84727742Y-47625941D02*
X84799171Y-47768798D01*
X84799171Y-47768798D02*
X84799171Y-48125941D01*
X84799171Y-48125941D02*
X84727742Y-48340227D01*
X83727742Y-48911655D02*
X83727742Y-49625941D01*
X83299171Y-48768798D02*
X84799171Y-49268798D01*
X84799171Y-49268798D02*
X83299171Y-49768798D01*
X84799171Y-50054512D02*
X84799171Y-50911655D01*
X83299171Y-50483083D02*
X84799171Y-50483083D01*
X83299171Y-51411654D02*
X84799171Y-51411654D01*
X84799171Y-52411655D02*
X84799171Y-52697369D01*
X84799171Y-52697369D02*
X84727742Y-52840226D01*
X84727742Y-52840226D02*
X84584885Y-52983083D01*
X84584885Y-52983083D02*
X84299171Y-53054512D01*
X84299171Y-53054512D02*
X83799171Y-53054512D01*
X83799171Y-53054512D02*
X83513457Y-52983083D01*
X83513457Y-52983083D02*
X83370600Y-52840226D01*
X83370600Y-52840226D02*
X83299171Y-52697369D01*
X83299171Y-52697369D02*
X83299171Y-52411655D01*
X83299171Y-52411655D02*
X83370600Y-52268798D01*
X83370600Y-52268798D02*
X83513457Y-52125940D01*
X83513457Y-52125940D02*
X83799171Y-52054512D01*
X83799171Y-52054512D02*
X84299171Y-52054512D01*
X84299171Y-52054512D02*
X84584885Y-52125940D01*
X84584885Y-52125940D02*
X84727742Y-52268798D01*
X84727742Y-52268798D02*
X84799171Y-52411655D01*
X83299171Y-53697369D02*
X84799171Y-53697369D01*
X84799171Y-53697369D02*
X83299171Y-54554512D01*
X83299171Y-54554512D02*
X84799171Y-54554512D01*
D11*
%TO.C,H10*%
X78801905Y-134277419D02*
X78801905Y-133277419D01*
X78801905Y-133753609D02*
X79373333Y-133753609D01*
X79373333Y-134277419D02*
X79373333Y-133277419D01*
X80373333Y-134277419D02*
X79801905Y-134277419D01*
X80087619Y-134277419D02*
X80087619Y-133277419D01*
X80087619Y-133277419D02*
X79992381Y-133420276D01*
X79992381Y-133420276D02*
X79897143Y-133515514D01*
X79897143Y-133515514D02*
X79801905Y-133563133D01*
X80992381Y-133277419D02*
X81087619Y-133277419D01*
X81087619Y-133277419D02*
X81182857Y-133325038D01*
X81182857Y-133325038D02*
X81230476Y-133372657D01*
X81230476Y-133372657D02*
X81278095Y-133467895D01*
X81278095Y-133467895D02*
X81325714Y-133658371D01*
X81325714Y-133658371D02*
X81325714Y-133896466D01*
X81325714Y-133896466D02*
X81278095Y-134086942D01*
X81278095Y-134086942D02*
X81230476Y-134182180D01*
X81230476Y-134182180D02*
X81182857Y-134229800D01*
X81182857Y-134229800D02*
X81087619Y-134277419D01*
X81087619Y-134277419D02*
X80992381Y-134277419D01*
X80992381Y-134277419D02*
X80897143Y-134229800D01*
X80897143Y-134229800D02*
X80849524Y-134182180D01*
X80849524Y-134182180D02*
X80801905Y-134086942D01*
X80801905Y-134086942D02*
X80754286Y-133896466D01*
X80754286Y-133896466D02*
X80754286Y-133658371D01*
X80754286Y-133658371D02*
X80801905Y-133467895D01*
X80801905Y-133467895D02*
X80849524Y-133372657D01*
X80849524Y-133372657D02*
X80897143Y-133325038D01*
X80897143Y-133325038D02*
X80992381Y-133277419D01*
%TO.C,H9*%
X85278095Y-134277419D02*
X85278095Y-133277419D01*
X85278095Y-133753609D02*
X85849523Y-133753609D01*
X85849523Y-134277419D02*
X85849523Y-133277419D01*
X86373333Y-134277419D02*
X86563809Y-134277419D01*
X86563809Y-134277419D02*
X86659047Y-134229800D01*
X86659047Y-134229800D02*
X86706666Y-134182180D01*
X86706666Y-134182180D02*
X86801904Y-134039323D01*
X86801904Y-134039323D02*
X86849523Y-133848847D01*
X86849523Y-133848847D02*
X86849523Y-133467895D01*
X86849523Y-133467895D02*
X86801904Y-133372657D01*
X86801904Y-133372657D02*
X86754285Y-133325038D01*
X86754285Y-133325038D02*
X86659047Y-133277419D01*
X86659047Y-133277419D02*
X86468571Y-133277419D01*
X86468571Y-133277419D02*
X86373333Y-133325038D01*
X86373333Y-133325038D02*
X86325714Y-133372657D01*
X86325714Y-133372657D02*
X86278095Y-133467895D01*
X86278095Y-133467895D02*
X86278095Y-133705990D01*
X86278095Y-133705990D02*
X86325714Y-133801228D01*
X86325714Y-133801228D02*
X86373333Y-133848847D01*
X86373333Y-133848847D02*
X86468571Y-133896466D01*
X86468571Y-133896466D02*
X86659047Y-133896466D01*
X86659047Y-133896466D02*
X86754285Y-133848847D01*
X86754285Y-133848847D02*
X86801904Y-133801228D01*
X86801904Y-133801228D02*
X86849523Y-133705990D01*
D12*
%TO.C,D8*%
X58224819Y-157548094D02*
X57224819Y-157548094D01*
X57224819Y-157548094D02*
X57224819Y-157309999D01*
X57224819Y-157309999D02*
X57272438Y-157167142D01*
X57272438Y-157167142D02*
X57367676Y-157071904D01*
X57367676Y-157071904D02*
X57462914Y-157024285D01*
X57462914Y-157024285D02*
X57653390Y-156976666D01*
X57653390Y-156976666D02*
X57796247Y-156976666D01*
X57796247Y-156976666D02*
X57986723Y-157024285D01*
X57986723Y-157024285D02*
X58081961Y-157071904D01*
X58081961Y-157071904D02*
X58177200Y-157167142D01*
X58177200Y-157167142D02*
X58224819Y-157309999D01*
X58224819Y-157309999D02*
X58224819Y-157548094D01*
X57653390Y-156405237D02*
X57605771Y-156500475D01*
X57605771Y-156500475D02*
X57558152Y-156548094D01*
X57558152Y-156548094D02*
X57462914Y-156595713D01*
X57462914Y-156595713D02*
X57415295Y-156595713D01*
X57415295Y-156595713D02*
X57320057Y-156548094D01*
X57320057Y-156548094D02*
X57272438Y-156500475D01*
X57272438Y-156500475D02*
X57224819Y-156405237D01*
X57224819Y-156405237D02*
X57224819Y-156214761D01*
X57224819Y-156214761D02*
X57272438Y-156119523D01*
X57272438Y-156119523D02*
X57320057Y-156071904D01*
X57320057Y-156071904D02*
X57415295Y-156024285D01*
X57415295Y-156024285D02*
X57462914Y-156024285D01*
X57462914Y-156024285D02*
X57558152Y-156071904D01*
X57558152Y-156071904D02*
X57605771Y-156119523D01*
X57605771Y-156119523D02*
X57653390Y-156214761D01*
X57653390Y-156214761D02*
X57653390Y-156405237D01*
X57653390Y-156405237D02*
X57701009Y-156500475D01*
X57701009Y-156500475D02*
X57748628Y-156548094D01*
X57748628Y-156548094D02*
X57843866Y-156595713D01*
X57843866Y-156595713D02*
X58034342Y-156595713D01*
X58034342Y-156595713D02*
X58129580Y-156548094D01*
X58129580Y-156548094D02*
X58177200Y-156500475D01*
X58177200Y-156500475D02*
X58224819Y-156405237D01*
X58224819Y-156405237D02*
X58224819Y-156214761D01*
X58224819Y-156214761D02*
X58177200Y-156119523D01*
X58177200Y-156119523D02*
X58129580Y-156071904D01*
X58129580Y-156071904D02*
X58034342Y-156024285D01*
X58034342Y-156024285D02*
X57843866Y-156024285D01*
X57843866Y-156024285D02*
X57748628Y-156071904D01*
X57748628Y-156071904D02*
X57701009Y-156119523D01*
X57701009Y-156119523D02*
X57653390Y-156214761D01*
X57854819Y-151991904D02*
X56854819Y-151991904D01*
X57854819Y-151420476D02*
X57283390Y-151849047D01*
X56854819Y-151420476D02*
X57426247Y-151991904D01*
%TO.C,D1*%
X58224819Y-38138094D02*
X57224819Y-38138094D01*
X57224819Y-38138094D02*
X57224819Y-37899999D01*
X57224819Y-37899999D02*
X57272438Y-37757142D01*
X57272438Y-37757142D02*
X57367676Y-37661904D01*
X57367676Y-37661904D02*
X57462914Y-37614285D01*
X57462914Y-37614285D02*
X57653390Y-37566666D01*
X57653390Y-37566666D02*
X57796247Y-37566666D01*
X57796247Y-37566666D02*
X57986723Y-37614285D01*
X57986723Y-37614285D02*
X58081961Y-37661904D01*
X58081961Y-37661904D02*
X58177200Y-37757142D01*
X58177200Y-37757142D02*
X58224819Y-37899999D01*
X58224819Y-37899999D02*
X58224819Y-38138094D01*
X58224819Y-36614285D02*
X58224819Y-37185713D01*
X58224819Y-36899999D02*
X57224819Y-36899999D01*
X57224819Y-36899999D02*
X57367676Y-36995237D01*
X57367676Y-36995237D02*
X57462914Y-37090475D01*
X57462914Y-37090475D02*
X57510533Y-37185713D01*
X57854819Y-32581904D02*
X56854819Y-32581904D01*
X57854819Y-32010476D02*
X57283390Y-32439047D01*
X56854819Y-32010476D02*
X57426247Y-32581904D01*
D11*
%TO.C,TB5*%
X40402580Y-100318095D02*
X40402580Y-100889523D01*
X39402580Y-100603809D02*
X40402580Y-100603809D01*
X39926390Y-101556190D02*
X39878771Y-101699047D01*
X39878771Y-101699047D02*
X39831152Y-101746666D01*
X39831152Y-101746666D02*
X39735914Y-101794285D01*
X39735914Y-101794285D02*
X39593057Y-101794285D01*
X39593057Y-101794285D02*
X39497819Y-101746666D01*
X39497819Y-101746666D02*
X39450200Y-101699047D01*
X39450200Y-101699047D02*
X39402580Y-101603809D01*
X39402580Y-101603809D02*
X39402580Y-101222857D01*
X39402580Y-101222857D02*
X40402580Y-101222857D01*
X40402580Y-101222857D02*
X40402580Y-101556190D01*
X40402580Y-101556190D02*
X40354961Y-101651428D01*
X40354961Y-101651428D02*
X40307342Y-101699047D01*
X40307342Y-101699047D02*
X40212104Y-101746666D01*
X40212104Y-101746666D02*
X40116866Y-101746666D01*
X40116866Y-101746666D02*
X40021628Y-101699047D01*
X40021628Y-101699047D02*
X39974009Y-101651428D01*
X39974009Y-101651428D02*
X39926390Y-101556190D01*
X39926390Y-101556190D02*
X39926390Y-101222857D01*
X40402580Y-102699047D02*
X40402580Y-102222857D01*
X40402580Y-102222857D02*
X39926390Y-102175238D01*
X39926390Y-102175238D02*
X39974009Y-102222857D01*
X39974009Y-102222857D02*
X40021628Y-102318095D01*
X40021628Y-102318095D02*
X40021628Y-102556190D01*
X40021628Y-102556190D02*
X39974009Y-102651428D01*
X39974009Y-102651428D02*
X39926390Y-102699047D01*
X39926390Y-102699047D02*
X39831152Y-102746666D01*
X39831152Y-102746666D02*
X39593057Y-102746666D01*
X39593057Y-102746666D02*
X39497819Y-102699047D01*
X39497819Y-102699047D02*
X39450200Y-102651428D01*
X39450200Y-102651428D02*
X39402580Y-102556190D01*
X39402580Y-102556190D02*
X39402580Y-102318095D01*
X39402580Y-102318095D02*
X39450200Y-102222857D01*
X39450200Y-102222857D02*
X39497819Y-102175238D01*
D12*
%TO.C,D3*%
X58224819Y-73038094D02*
X57224819Y-73038094D01*
X57224819Y-73038094D02*
X57224819Y-72799999D01*
X57224819Y-72799999D02*
X57272438Y-72657142D01*
X57272438Y-72657142D02*
X57367676Y-72561904D01*
X57367676Y-72561904D02*
X57462914Y-72514285D01*
X57462914Y-72514285D02*
X57653390Y-72466666D01*
X57653390Y-72466666D02*
X57796247Y-72466666D01*
X57796247Y-72466666D02*
X57986723Y-72514285D01*
X57986723Y-72514285D02*
X58081961Y-72561904D01*
X58081961Y-72561904D02*
X58177200Y-72657142D01*
X58177200Y-72657142D02*
X58224819Y-72799999D01*
X58224819Y-72799999D02*
X58224819Y-73038094D01*
X57224819Y-72133332D02*
X57224819Y-71514285D01*
X57224819Y-71514285D02*
X57605771Y-71847618D01*
X57605771Y-71847618D02*
X57605771Y-71704761D01*
X57605771Y-71704761D02*
X57653390Y-71609523D01*
X57653390Y-71609523D02*
X57701009Y-71561904D01*
X57701009Y-71561904D02*
X57796247Y-71514285D01*
X57796247Y-71514285D02*
X58034342Y-71514285D01*
X58034342Y-71514285D02*
X58129580Y-71561904D01*
X58129580Y-71561904D02*
X58177200Y-71609523D01*
X58177200Y-71609523D02*
X58224819Y-71704761D01*
X58224819Y-71704761D02*
X58224819Y-71990475D01*
X58224819Y-71990475D02*
X58177200Y-72085713D01*
X58177200Y-72085713D02*
X58129580Y-72133332D01*
X57854819Y-67481904D02*
X56854819Y-67481904D01*
X57854819Y-66910476D02*
X57283390Y-67339047D01*
X56854819Y-66910476D02*
X57426247Y-67481904D01*
D11*
%TO.C,H8*%
X95838095Y-77457419D02*
X95838095Y-76457419D01*
X95838095Y-76933609D02*
X96409523Y-76933609D01*
X96409523Y-77457419D02*
X96409523Y-76457419D01*
X97028571Y-76885990D02*
X96933333Y-76838371D01*
X96933333Y-76838371D02*
X96885714Y-76790752D01*
X96885714Y-76790752D02*
X96838095Y-76695514D01*
X96838095Y-76695514D02*
X96838095Y-76647895D01*
X96838095Y-76647895D02*
X96885714Y-76552657D01*
X96885714Y-76552657D02*
X96933333Y-76505038D01*
X96933333Y-76505038D02*
X97028571Y-76457419D01*
X97028571Y-76457419D02*
X97219047Y-76457419D01*
X97219047Y-76457419D02*
X97314285Y-76505038D01*
X97314285Y-76505038D02*
X97361904Y-76552657D01*
X97361904Y-76552657D02*
X97409523Y-76647895D01*
X97409523Y-76647895D02*
X97409523Y-76695514D01*
X97409523Y-76695514D02*
X97361904Y-76790752D01*
X97361904Y-76790752D02*
X97314285Y-76838371D01*
X97314285Y-76838371D02*
X97219047Y-76885990D01*
X97219047Y-76885990D02*
X97028571Y-76885990D01*
X97028571Y-76885990D02*
X96933333Y-76933609D01*
X96933333Y-76933609D02*
X96885714Y-76981228D01*
X96885714Y-76981228D02*
X96838095Y-77076466D01*
X96838095Y-77076466D02*
X96838095Y-77266942D01*
X96838095Y-77266942D02*
X96885714Y-77362180D01*
X96885714Y-77362180D02*
X96933333Y-77409800D01*
X96933333Y-77409800D02*
X97028571Y-77457419D01*
X97028571Y-77457419D02*
X97219047Y-77457419D01*
X97219047Y-77457419D02*
X97314285Y-77409800D01*
X97314285Y-77409800D02*
X97361904Y-77362180D01*
X97361904Y-77362180D02*
X97409523Y-77266942D01*
X97409523Y-77266942D02*
X97409523Y-77076466D01*
X97409523Y-77076466D02*
X97361904Y-76981228D01*
X97361904Y-76981228D02*
X97314285Y-76933609D01*
X97314285Y-76933609D02*
X97219047Y-76885990D01*
D12*
%TO.C,Q4*%
X58390057Y-72025238D02*
X58342438Y-72120476D01*
X58342438Y-72120476D02*
X58247200Y-72215714D01*
X58247200Y-72215714D02*
X58104342Y-72358571D01*
X58104342Y-72358571D02*
X58056723Y-72453809D01*
X58056723Y-72453809D02*
X58056723Y-72549047D01*
X58294819Y-72501428D02*
X58247200Y-72596666D01*
X58247200Y-72596666D02*
X58151961Y-72691904D01*
X58151961Y-72691904D02*
X57961485Y-72739523D01*
X57961485Y-72739523D02*
X57628152Y-72739523D01*
X57628152Y-72739523D02*
X57437676Y-72691904D01*
X57437676Y-72691904D02*
X57342438Y-72596666D01*
X57342438Y-72596666D02*
X57294819Y-72501428D01*
X57294819Y-72501428D02*
X57294819Y-72310952D01*
X57294819Y-72310952D02*
X57342438Y-72215714D01*
X57342438Y-72215714D02*
X57437676Y-72120476D01*
X57437676Y-72120476D02*
X57628152Y-72072857D01*
X57628152Y-72072857D02*
X57961485Y-72072857D01*
X57961485Y-72072857D02*
X58151961Y-72120476D01*
X58151961Y-72120476D02*
X58247200Y-72215714D01*
X58247200Y-72215714D02*
X58294819Y-72310952D01*
X58294819Y-72310952D02*
X58294819Y-72501428D01*
X57628152Y-71215714D02*
X58294819Y-71215714D01*
X57247200Y-71453809D02*
X57961485Y-71691904D01*
X57961485Y-71691904D02*
X57961485Y-71072857D01*
D11*
%TO.C,SW4*%
X51973332Y-104770200D02*
X51830475Y-104722580D01*
X51830475Y-104722580D02*
X51592380Y-104722580D01*
X51592380Y-104722580D02*
X51497142Y-104770200D01*
X51497142Y-104770200D02*
X51449523Y-104817819D01*
X51449523Y-104817819D02*
X51401904Y-104913057D01*
X51401904Y-104913057D02*
X51401904Y-105008295D01*
X51401904Y-105008295D02*
X51449523Y-105103533D01*
X51449523Y-105103533D02*
X51497142Y-105151152D01*
X51497142Y-105151152D02*
X51592380Y-105198771D01*
X51592380Y-105198771D02*
X51782856Y-105246390D01*
X51782856Y-105246390D02*
X51878094Y-105294009D01*
X51878094Y-105294009D02*
X51925713Y-105341628D01*
X51925713Y-105341628D02*
X51973332Y-105436866D01*
X51973332Y-105436866D02*
X51973332Y-105532104D01*
X51973332Y-105532104D02*
X51925713Y-105627342D01*
X51925713Y-105627342D02*
X51878094Y-105674961D01*
X51878094Y-105674961D02*
X51782856Y-105722580D01*
X51782856Y-105722580D02*
X51544761Y-105722580D01*
X51544761Y-105722580D02*
X51401904Y-105674961D01*
X51068570Y-105722580D02*
X50830475Y-104722580D01*
X50830475Y-104722580D02*
X50639999Y-105436866D01*
X50639999Y-105436866D02*
X50449523Y-104722580D01*
X50449523Y-104722580D02*
X50211428Y-105722580D01*
X49401904Y-105389247D02*
X49401904Y-104722580D01*
X49639999Y-105770200D02*
X49878094Y-105055914D01*
X49878094Y-105055914D02*
X49259047Y-105055914D01*
%TO.C,SW7*%
X95178332Y-136735200D02*
X95035475Y-136687580D01*
X95035475Y-136687580D02*
X94797380Y-136687580D01*
X94797380Y-136687580D02*
X94702142Y-136735200D01*
X94702142Y-136735200D02*
X94654523Y-136782819D01*
X94654523Y-136782819D02*
X94606904Y-136878057D01*
X94606904Y-136878057D02*
X94606904Y-136973295D01*
X94606904Y-136973295D02*
X94654523Y-137068533D01*
X94654523Y-137068533D02*
X94702142Y-137116152D01*
X94702142Y-137116152D02*
X94797380Y-137163771D01*
X94797380Y-137163771D02*
X94987856Y-137211390D01*
X94987856Y-137211390D02*
X95083094Y-137259009D01*
X95083094Y-137259009D02*
X95130713Y-137306628D01*
X95130713Y-137306628D02*
X95178332Y-137401866D01*
X95178332Y-137401866D02*
X95178332Y-137497104D01*
X95178332Y-137497104D02*
X95130713Y-137592342D01*
X95130713Y-137592342D02*
X95083094Y-137639961D01*
X95083094Y-137639961D02*
X94987856Y-137687580D01*
X94987856Y-137687580D02*
X94749761Y-137687580D01*
X94749761Y-137687580D02*
X94606904Y-137639961D01*
X94273570Y-137687580D02*
X94035475Y-136687580D01*
X94035475Y-136687580D02*
X93844999Y-137401866D01*
X93844999Y-137401866D02*
X93654523Y-136687580D01*
X93654523Y-136687580D02*
X93416428Y-137687580D01*
X93130713Y-137687580D02*
X92464047Y-137687580D01*
X92464047Y-137687580D02*
X92892618Y-136687580D01*
D12*
%TO.C,Q6*%
X58390057Y-105965238D02*
X58342438Y-106060476D01*
X58342438Y-106060476D02*
X58247200Y-106155714D01*
X58247200Y-106155714D02*
X58104342Y-106298571D01*
X58104342Y-106298571D02*
X58056723Y-106393809D01*
X58056723Y-106393809D02*
X58056723Y-106489047D01*
X58294819Y-106441428D02*
X58247200Y-106536666D01*
X58247200Y-106536666D02*
X58151961Y-106631904D01*
X58151961Y-106631904D02*
X57961485Y-106679523D01*
X57961485Y-106679523D02*
X57628152Y-106679523D01*
X57628152Y-106679523D02*
X57437676Y-106631904D01*
X57437676Y-106631904D02*
X57342438Y-106536666D01*
X57342438Y-106536666D02*
X57294819Y-106441428D01*
X57294819Y-106441428D02*
X57294819Y-106250952D01*
X57294819Y-106250952D02*
X57342438Y-106155714D01*
X57342438Y-106155714D02*
X57437676Y-106060476D01*
X57437676Y-106060476D02*
X57628152Y-106012857D01*
X57628152Y-106012857D02*
X57961485Y-106012857D01*
X57961485Y-106012857D02*
X58151961Y-106060476D01*
X58151961Y-106060476D02*
X58247200Y-106155714D01*
X58247200Y-106155714D02*
X58294819Y-106250952D01*
X58294819Y-106250952D02*
X58294819Y-106441428D01*
X57294819Y-105155714D02*
X57294819Y-105346190D01*
X57294819Y-105346190D02*
X57342438Y-105441428D01*
X57342438Y-105441428D02*
X57390057Y-105489047D01*
X57390057Y-105489047D02*
X57532914Y-105584285D01*
X57532914Y-105584285D02*
X57723390Y-105631904D01*
X57723390Y-105631904D02*
X58104342Y-105631904D01*
X58104342Y-105631904D02*
X58199580Y-105584285D01*
X58199580Y-105584285D02*
X58247200Y-105536666D01*
X58247200Y-105536666D02*
X58294819Y-105441428D01*
X58294819Y-105441428D02*
X58294819Y-105250952D01*
X58294819Y-105250952D02*
X58247200Y-105155714D01*
X58247200Y-105155714D02*
X58199580Y-105108095D01*
X58199580Y-105108095D02*
X58104342Y-105060476D01*
X58104342Y-105060476D02*
X57866247Y-105060476D01*
X57866247Y-105060476D02*
X57771009Y-105108095D01*
X57771009Y-105108095D02*
X57723390Y-105155714D01*
X57723390Y-105155714D02*
X57675771Y-105250952D01*
X57675771Y-105250952D02*
X57675771Y-105441428D01*
X57675771Y-105441428D02*
X57723390Y-105536666D01*
X57723390Y-105536666D02*
X57771009Y-105584285D01*
X57771009Y-105584285D02*
X57866247Y-105631904D01*
%TO.C,R2*%
X66158333Y-56284819D02*
X65825000Y-55808628D01*
X65586905Y-56284819D02*
X65586905Y-55284819D01*
X65586905Y-55284819D02*
X65967857Y-55284819D01*
X65967857Y-55284819D02*
X66063095Y-55332438D01*
X66063095Y-55332438D02*
X66110714Y-55380057D01*
X66110714Y-55380057D02*
X66158333Y-55475295D01*
X66158333Y-55475295D02*
X66158333Y-55618152D01*
X66158333Y-55618152D02*
X66110714Y-55713390D01*
X66110714Y-55713390D02*
X66063095Y-55761009D01*
X66063095Y-55761009D02*
X65967857Y-55808628D01*
X65967857Y-55808628D02*
X65586905Y-55808628D01*
X66539286Y-55380057D02*
X66586905Y-55332438D01*
X66586905Y-55332438D02*
X66682143Y-55284819D01*
X66682143Y-55284819D02*
X66920238Y-55284819D01*
X66920238Y-55284819D02*
X67015476Y-55332438D01*
X67015476Y-55332438D02*
X67063095Y-55380057D01*
X67063095Y-55380057D02*
X67110714Y-55475295D01*
X67110714Y-55475295D02*
X67110714Y-55570533D01*
X67110714Y-55570533D02*
X67063095Y-55713390D01*
X67063095Y-55713390D02*
X66491667Y-56284819D01*
X66491667Y-56284819D02*
X67110714Y-56284819D01*
%TO.C,Q3*%
X58390057Y-54565238D02*
X58342438Y-54660476D01*
X58342438Y-54660476D02*
X58247200Y-54755714D01*
X58247200Y-54755714D02*
X58104342Y-54898571D01*
X58104342Y-54898571D02*
X58056723Y-54993809D01*
X58056723Y-54993809D02*
X58056723Y-55089047D01*
X58294819Y-55041428D02*
X58247200Y-55136666D01*
X58247200Y-55136666D02*
X58151961Y-55231904D01*
X58151961Y-55231904D02*
X57961485Y-55279523D01*
X57961485Y-55279523D02*
X57628152Y-55279523D01*
X57628152Y-55279523D02*
X57437676Y-55231904D01*
X57437676Y-55231904D02*
X57342438Y-55136666D01*
X57342438Y-55136666D02*
X57294819Y-55041428D01*
X57294819Y-55041428D02*
X57294819Y-54850952D01*
X57294819Y-54850952D02*
X57342438Y-54755714D01*
X57342438Y-54755714D02*
X57437676Y-54660476D01*
X57437676Y-54660476D02*
X57628152Y-54612857D01*
X57628152Y-54612857D02*
X57961485Y-54612857D01*
X57961485Y-54612857D02*
X58151961Y-54660476D01*
X58151961Y-54660476D02*
X58247200Y-54755714D01*
X58247200Y-54755714D02*
X58294819Y-54850952D01*
X58294819Y-54850952D02*
X58294819Y-55041428D01*
X57294819Y-54279523D02*
X57294819Y-53660476D01*
X57294819Y-53660476D02*
X57675771Y-53993809D01*
X57675771Y-53993809D02*
X57675771Y-53850952D01*
X57675771Y-53850952D02*
X57723390Y-53755714D01*
X57723390Y-53755714D02*
X57771009Y-53708095D01*
X57771009Y-53708095D02*
X57866247Y-53660476D01*
X57866247Y-53660476D02*
X58104342Y-53660476D01*
X58104342Y-53660476D02*
X58199580Y-53708095D01*
X58199580Y-53708095D02*
X58247200Y-53755714D01*
X58247200Y-53755714D02*
X58294819Y-53850952D01*
X58294819Y-53850952D02*
X58294819Y-54136666D01*
X58294819Y-54136666D02*
X58247200Y-54231904D01*
X58247200Y-54231904D02*
X58199580Y-54279523D01*
%TO.C,Q1*%
X58390057Y-37595238D02*
X58342438Y-37690476D01*
X58342438Y-37690476D02*
X58247200Y-37785714D01*
X58247200Y-37785714D02*
X58104342Y-37928571D01*
X58104342Y-37928571D02*
X58056723Y-38023809D01*
X58056723Y-38023809D02*
X58056723Y-38119047D01*
X58294819Y-38071428D02*
X58247200Y-38166666D01*
X58247200Y-38166666D02*
X58151961Y-38261904D01*
X58151961Y-38261904D02*
X57961485Y-38309523D01*
X57961485Y-38309523D02*
X57628152Y-38309523D01*
X57628152Y-38309523D02*
X57437676Y-38261904D01*
X57437676Y-38261904D02*
X57342438Y-38166666D01*
X57342438Y-38166666D02*
X57294819Y-38071428D01*
X57294819Y-38071428D02*
X57294819Y-37880952D01*
X57294819Y-37880952D02*
X57342438Y-37785714D01*
X57342438Y-37785714D02*
X57437676Y-37690476D01*
X57437676Y-37690476D02*
X57628152Y-37642857D01*
X57628152Y-37642857D02*
X57961485Y-37642857D01*
X57961485Y-37642857D02*
X58151961Y-37690476D01*
X58151961Y-37690476D02*
X58247200Y-37785714D01*
X58247200Y-37785714D02*
X58294819Y-37880952D01*
X58294819Y-37880952D02*
X58294819Y-38071428D01*
X58294819Y-36690476D02*
X58294819Y-37261904D01*
X58294819Y-36976190D02*
X57294819Y-36976190D01*
X57294819Y-36976190D02*
X57437676Y-37071428D01*
X57437676Y-37071428D02*
X57532914Y-37166666D01*
X57532914Y-37166666D02*
X57580533Y-37261904D01*
D11*
%TO.C,SW6*%
X95178332Y-119885200D02*
X95035475Y-119837580D01*
X95035475Y-119837580D02*
X94797380Y-119837580D01*
X94797380Y-119837580D02*
X94702142Y-119885200D01*
X94702142Y-119885200D02*
X94654523Y-119932819D01*
X94654523Y-119932819D02*
X94606904Y-120028057D01*
X94606904Y-120028057D02*
X94606904Y-120123295D01*
X94606904Y-120123295D02*
X94654523Y-120218533D01*
X94654523Y-120218533D02*
X94702142Y-120266152D01*
X94702142Y-120266152D02*
X94797380Y-120313771D01*
X94797380Y-120313771D02*
X94987856Y-120361390D01*
X94987856Y-120361390D02*
X95083094Y-120409009D01*
X95083094Y-120409009D02*
X95130713Y-120456628D01*
X95130713Y-120456628D02*
X95178332Y-120551866D01*
X95178332Y-120551866D02*
X95178332Y-120647104D01*
X95178332Y-120647104D02*
X95130713Y-120742342D01*
X95130713Y-120742342D02*
X95083094Y-120789961D01*
X95083094Y-120789961D02*
X94987856Y-120837580D01*
X94987856Y-120837580D02*
X94749761Y-120837580D01*
X94749761Y-120837580D02*
X94606904Y-120789961D01*
X94273570Y-120837580D02*
X94035475Y-119837580D01*
X94035475Y-119837580D02*
X93844999Y-120551866D01*
X93844999Y-120551866D02*
X93654523Y-119837580D01*
X93654523Y-119837580D02*
X93416428Y-120837580D01*
X92606904Y-120837580D02*
X92797380Y-120837580D01*
X92797380Y-120837580D02*
X92892618Y-120789961D01*
X92892618Y-120789961D02*
X92940237Y-120742342D01*
X92940237Y-120742342D02*
X93035475Y-120599485D01*
X93035475Y-120599485D02*
X93083094Y-120409009D01*
X93083094Y-120409009D02*
X93083094Y-120028057D01*
X93083094Y-120028057D02*
X93035475Y-119932819D01*
X93035475Y-119932819D02*
X92987856Y-119885200D01*
X92987856Y-119885200D02*
X92892618Y-119837580D01*
X92892618Y-119837580D02*
X92702142Y-119837580D01*
X92702142Y-119837580D02*
X92606904Y-119885200D01*
X92606904Y-119885200D02*
X92559285Y-119932819D01*
X92559285Y-119932819D02*
X92511666Y-120028057D01*
X92511666Y-120028057D02*
X92511666Y-120266152D01*
X92511666Y-120266152D02*
X92559285Y-120361390D01*
X92559285Y-120361390D02*
X92606904Y-120409009D01*
X92606904Y-120409009D02*
X92702142Y-120456628D01*
X92702142Y-120456628D02*
X92892618Y-120456628D01*
X92892618Y-120456628D02*
X92987856Y-120409009D01*
X92987856Y-120409009D02*
X93035475Y-120361390D01*
X93035475Y-120361390D02*
X93083094Y-120266152D01*
%TO.C,SW8*%
X95178332Y-153785200D02*
X95035475Y-153737580D01*
X95035475Y-153737580D02*
X94797380Y-153737580D01*
X94797380Y-153737580D02*
X94702142Y-153785200D01*
X94702142Y-153785200D02*
X94654523Y-153832819D01*
X94654523Y-153832819D02*
X94606904Y-153928057D01*
X94606904Y-153928057D02*
X94606904Y-154023295D01*
X94606904Y-154023295D02*
X94654523Y-154118533D01*
X94654523Y-154118533D02*
X94702142Y-154166152D01*
X94702142Y-154166152D02*
X94797380Y-154213771D01*
X94797380Y-154213771D02*
X94987856Y-154261390D01*
X94987856Y-154261390D02*
X95083094Y-154309009D01*
X95083094Y-154309009D02*
X95130713Y-154356628D01*
X95130713Y-154356628D02*
X95178332Y-154451866D01*
X95178332Y-154451866D02*
X95178332Y-154547104D01*
X95178332Y-154547104D02*
X95130713Y-154642342D01*
X95130713Y-154642342D02*
X95083094Y-154689961D01*
X95083094Y-154689961D02*
X94987856Y-154737580D01*
X94987856Y-154737580D02*
X94749761Y-154737580D01*
X94749761Y-154737580D02*
X94606904Y-154689961D01*
X94273570Y-154737580D02*
X94035475Y-153737580D01*
X94035475Y-153737580D02*
X93844999Y-154451866D01*
X93844999Y-154451866D02*
X93654523Y-153737580D01*
X93654523Y-153737580D02*
X93416428Y-154737580D01*
X92892618Y-154309009D02*
X92987856Y-154356628D01*
X92987856Y-154356628D02*
X93035475Y-154404247D01*
X93035475Y-154404247D02*
X93083094Y-154499485D01*
X93083094Y-154499485D02*
X93083094Y-154547104D01*
X93083094Y-154547104D02*
X93035475Y-154642342D01*
X93035475Y-154642342D02*
X92987856Y-154689961D01*
X92987856Y-154689961D02*
X92892618Y-154737580D01*
X92892618Y-154737580D02*
X92702142Y-154737580D01*
X92702142Y-154737580D02*
X92606904Y-154689961D01*
X92606904Y-154689961D02*
X92559285Y-154642342D01*
X92559285Y-154642342D02*
X92511666Y-154547104D01*
X92511666Y-154547104D02*
X92511666Y-154499485D01*
X92511666Y-154499485D02*
X92559285Y-154404247D01*
X92559285Y-154404247D02*
X92606904Y-154356628D01*
X92606904Y-154356628D02*
X92702142Y-154309009D01*
X92702142Y-154309009D02*
X92892618Y-154309009D01*
X92892618Y-154309009D02*
X92987856Y-154261390D01*
X92987856Y-154261390D02*
X93035475Y-154213771D01*
X93035475Y-154213771D02*
X93083094Y-154118533D01*
X93083094Y-154118533D02*
X93083094Y-153928057D01*
X93083094Y-153928057D02*
X93035475Y-153832819D01*
X93035475Y-153832819D02*
X92987856Y-153785200D01*
X92987856Y-153785200D02*
X92892618Y-153737580D01*
X92892618Y-153737580D02*
X92702142Y-153737580D01*
X92702142Y-153737580D02*
X92606904Y-153785200D01*
X92606904Y-153785200D02*
X92559285Y-153832819D01*
X92559285Y-153832819D02*
X92511666Y-153928057D01*
X92511666Y-153928057D02*
X92511666Y-154118533D01*
X92511666Y-154118533D02*
X92559285Y-154213771D01*
X92559285Y-154213771D02*
X92606904Y-154261390D01*
X92606904Y-154261390D02*
X92702142Y-154309009D01*
D12*
%TO.C,R1*%
X66258333Y-39384819D02*
X65925000Y-38908628D01*
X65686905Y-39384819D02*
X65686905Y-38384819D01*
X65686905Y-38384819D02*
X66067857Y-38384819D01*
X66067857Y-38384819D02*
X66163095Y-38432438D01*
X66163095Y-38432438D02*
X66210714Y-38480057D01*
X66210714Y-38480057D02*
X66258333Y-38575295D01*
X66258333Y-38575295D02*
X66258333Y-38718152D01*
X66258333Y-38718152D02*
X66210714Y-38813390D01*
X66210714Y-38813390D02*
X66163095Y-38861009D01*
X66163095Y-38861009D02*
X66067857Y-38908628D01*
X66067857Y-38908628D02*
X65686905Y-38908628D01*
X67210714Y-39384819D02*
X66639286Y-39384819D01*
X66925000Y-39384819D02*
X66925000Y-38384819D01*
X66925000Y-38384819D02*
X66829762Y-38527676D01*
X66829762Y-38527676D02*
X66734524Y-38622914D01*
X66734524Y-38622914D02*
X66639286Y-38670533D01*
D11*
%TO.C,SW2*%
X52333332Y-51590200D02*
X52190475Y-51542580D01*
X52190475Y-51542580D02*
X51952380Y-51542580D01*
X51952380Y-51542580D02*
X51857142Y-51590200D01*
X51857142Y-51590200D02*
X51809523Y-51637819D01*
X51809523Y-51637819D02*
X51761904Y-51733057D01*
X51761904Y-51733057D02*
X51761904Y-51828295D01*
X51761904Y-51828295D02*
X51809523Y-51923533D01*
X51809523Y-51923533D02*
X51857142Y-51971152D01*
X51857142Y-51971152D02*
X51952380Y-52018771D01*
X51952380Y-52018771D02*
X52142856Y-52066390D01*
X52142856Y-52066390D02*
X52238094Y-52114009D01*
X52238094Y-52114009D02*
X52285713Y-52161628D01*
X52285713Y-52161628D02*
X52333332Y-52256866D01*
X52333332Y-52256866D02*
X52333332Y-52352104D01*
X52333332Y-52352104D02*
X52285713Y-52447342D01*
X52285713Y-52447342D02*
X52238094Y-52494961D01*
X52238094Y-52494961D02*
X52142856Y-52542580D01*
X52142856Y-52542580D02*
X51904761Y-52542580D01*
X51904761Y-52542580D02*
X51761904Y-52494961D01*
X51428570Y-52542580D02*
X51190475Y-51542580D01*
X51190475Y-51542580D02*
X50999999Y-52256866D01*
X50999999Y-52256866D02*
X50809523Y-51542580D01*
X50809523Y-51542580D02*
X50571428Y-52542580D01*
X50238094Y-52447342D02*
X50190475Y-52494961D01*
X50190475Y-52494961D02*
X50095237Y-52542580D01*
X50095237Y-52542580D02*
X49857142Y-52542580D01*
X49857142Y-52542580D02*
X49761904Y-52494961D01*
X49761904Y-52494961D02*
X49714285Y-52447342D01*
X49714285Y-52447342D02*
X49666666Y-52352104D01*
X49666666Y-52352104D02*
X49666666Y-52256866D01*
X49666666Y-52256866D02*
X49714285Y-52114009D01*
X49714285Y-52114009D02*
X50285713Y-51542580D01*
X50285713Y-51542580D02*
X49666666Y-51542580D01*
D12*
%TO.C,R5*%
X65833333Y-107734819D02*
X65500000Y-107258628D01*
X65261905Y-107734819D02*
X65261905Y-106734819D01*
X65261905Y-106734819D02*
X65642857Y-106734819D01*
X65642857Y-106734819D02*
X65738095Y-106782438D01*
X65738095Y-106782438D02*
X65785714Y-106830057D01*
X65785714Y-106830057D02*
X65833333Y-106925295D01*
X65833333Y-106925295D02*
X65833333Y-107068152D01*
X65833333Y-107068152D02*
X65785714Y-107163390D01*
X65785714Y-107163390D02*
X65738095Y-107211009D01*
X65738095Y-107211009D02*
X65642857Y-107258628D01*
X65642857Y-107258628D02*
X65261905Y-107258628D01*
X66738095Y-106734819D02*
X66261905Y-106734819D01*
X66261905Y-106734819D02*
X66214286Y-107211009D01*
X66214286Y-107211009D02*
X66261905Y-107163390D01*
X66261905Y-107163390D02*
X66357143Y-107115771D01*
X66357143Y-107115771D02*
X66595238Y-107115771D01*
X66595238Y-107115771D02*
X66690476Y-107163390D01*
X66690476Y-107163390D02*
X66738095Y-107211009D01*
X66738095Y-107211009D02*
X66785714Y-107306247D01*
X66785714Y-107306247D02*
X66785714Y-107544342D01*
X66785714Y-107544342D02*
X66738095Y-107639580D01*
X66738095Y-107639580D02*
X66690476Y-107687200D01*
X66690476Y-107687200D02*
X66595238Y-107734819D01*
X66595238Y-107734819D02*
X66357143Y-107734819D01*
X66357143Y-107734819D02*
X66261905Y-107687200D01*
X66261905Y-107687200D02*
X66214286Y-107639580D01*
%TO.C,D4*%
X57774819Y-89178094D02*
X56774819Y-89178094D01*
X56774819Y-89178094D02*
X56774819Y-88939999D01*
X56774819Y-88939999D02*
X56822438Y-88797142D01*
X56822438Y-88797142D02*
X56917676Y-88701904D01*
X56917676Y-88701904D02*
X57012914Y-88654285D01*
X57012914Y-88654285D02*
X57203390Y-88606666D01*
X57203390Y-88606666D02*
X57346247Y-88606666D01*
X57346247Y-88606666D02*
X57536723Y-88654285D01*
X57536723Y-88654285D02*
X57631961Y-88701904D01*
X57631961Y-88701904D02*
X57727200Y-88797142D01*
X57727200Y-88797142D02*
X57774819Y-88939999D01*
X57774819Y-88939999D02*
X57774819Y-89178094D01*
X57108152Y-87749523D02*
X57774819Y-87749523D01*
X56727200Y-87987618D02*
X57441485Y-88225713D01*
X57441485Y-88225713D02*
X57441485Y-87606666D01*
X57404819Y-83621904D02*
X56404819Y-83621904D01*
X57404819Y-83050476D02*
X56833390Y-83479047D01*
X56404819Y-83050476D02*
X56976247Y-83621904D01*
%TO.C,R3*%
X66158333Y-73784819D02*
X65825000Y-73308628D01*
X65586905Y-73784819D02*
X65586905Y-72784819D01*
X65586905Y-72784819D02*
X65967857Y-72784819D01*
X65967857Y-72784819D02*
X66063095Y-72832438D01*
X66063095Y-72832438D02*
X66110714Y-72880057D01*
X66110714Y-72880057D02*
X66158333Y-72975295D01*
X66158333Y-72975295D02*
X66158333Y-73118152D01*
X66158333Y-73118152D02*
X66110714Y-73213390D01*
X66110714Y-73213390D02*
X66063095Y-73261009D01*
X66063095Y-73261009D02*
X65967857Y-73308628D01*
X65967857Y-73308628D02*
X65586905Y-73308628D01*
X66491667Y-72784819D02*
X67110714Y-72784819D01*
X67110714Y-72784819D02*
X66777381Y-73165771D01*
X66777381Y-73165771D02*
X66920238Y-73165771D01*
X66920238Y-73165771D02*
X67015476Y-73213390D01*
X67015476Y-73213390D02*
X67063095Y-73261009D01*
X67063095Y-73261009D02*
X67110714Y-73356247D01*
X67110714Y-73356247D02*
X67110714Y-73594342D01*
X67110714Y-73594342D02*
X67063095Y-73689580D01*
X67063095Y-73689580D02*
X67015476Y-73737200D01*
X67015476Y-73737200D02*
X66920238Y-73784819D01*
X66920238Y-73784819D02*
X66634524Y-73784819D01*
X66634524Y-73784819D02*
X66539286Y-73737200D01*
X66539286Y-73737200D02*
X66491667Y-73689580D01*
%TO.C,R6*%
X65933333Y-124784819D02*
X65600000Y-124308628D01*
X65361905Y-124784819D02*
X65361905Y-123784819D01*
X65361905Y-123784819D02*
X65742857Y-123784819D01*
X65742857Y-123784819D02*
X65838095Y-123832438D01*
X65838095Y-123832438D02*
X65885714Y-123880057D01*
X65885714Y-123880057D02*
X65933333Y-123975295D01*
X65933333Y-123975295D02*
X65933333Y-124118152D01*
X65933333Y-124118152D02*
X65885714Y-124213390D01*
X65885714Y-124213390D02*
X65838095Y-124261009D01*
X65838095Y-124261009D02*
X65742857Y-124308628D01*
X65742857Y-124308628D02*
X65361905Y-124308628D01*
X66790476Y-123784819D02*
X66600000Y-123784819D01*
X66600000Y-123784819D02*
X66504762Y-123832438D01*
X66504762Y-123832438D02*
X66457143Y-123880057D01*
X66457143Y-123880057D02*
X66361905Y-124022914D01*
X66361905Y-124022914D02*
X66314286Y-124213390D01*
X66314286Y-124213390D02*
X66314286Y-124594342D01*
X66314286Y-124594342D02*
X66361905Y-124689580D01*
X66361905Y-124689580D02*
X66409524Y-124737200D01*
X66409524Y-124737200D02*
X66504762Y-124784819D01*
X66504762Y-124784819D02*
X66695238Y-124784819D01*
X66695238Y-124784819D02*
X66790476Y-124737200D01*
X66790476Y-124737200D02*
X66838095Y-124689580D01*
X66838095Y-124689580D02*
X66885714Y-124594342D01*
X66885714Y-124594342D02*
X66885714Y-124356247D01*
X66885714Y-124356247D02*
X66838095Y-124261009D01*
X66838095Y-124261009D02*
X66790476Y-124213390D01*
X66790476Y-124213390D02*
X66695238Y-124165771D01*
X66695238Y-124165771D02*
X66504762Y-124165771D01*
X66504762Y-124165771D02*
X66409524Y-124213390D01*
X66409524Y-124213390D02*
X66361905Y-124261009D01*
X66361905Y-124261009D02*
X66314286Y-124356247D01*
D11*
%TO.C,TB4*%
X40402580Y-87958095D02*
X40402580Y-88529523D01*
X39402580Y-88243809D02*
X40402580Y-88243809D01*
X39926390Y-89196190D02*
X39878771Y-89339047D01*
X39878771Y-89339047D02*
X39831152Y-89386666D01*
X39831152Y-89386666D02*
X39735914Y-89434285D01*
X39735914Y-89434285D02*
X39593057Y-89434285D01*
X39593057Y-89434285D02*
X39497819Y-89386666D01*
X39497819Y-89386666D02*
X39450200Y-89339047D01*
X39450200Y-89339047D02*
X39402580Y-89243809D01*
X39402580Y-89243809D02*
X39402580Y-88862857D01*
X39402580Y-88862857D02*
X40402580Y-88862857D01*
X40402580Y-88862857D02*
X40402580Y-89196190D01*
X40402580Y-89196190D02*
X40354961Y-89291428D01*
X40354961Y-89291428D02*
X40307342Y-89339047D01*
X40307342Y-89339047D02*
X40212104Y-89386666D01*
X40212104Y-89386666D02*
X40116866Y-89386666D01*
X40116866Y-89386666D02*
X40021628Y-89339047D01*
X40021628Y-89339047D02*
X39974009Y-89291428D01*
X39974009Y-89291428D02*
X39926390Y-89196190D01*
X39926390Y-89196190D02*
X39926390Y-88862857D01*
X40069247Y-90291428D02*
X39402580Y-90291428D01*
X40450200Y-90053333D02*
X39735914Y-89815238D01*
X39735914Y-89815238D02*
X39735914Y-90434285D01*
%TO.C,SW3*%
X51013332Y-36420200D02*
X50870475Y-36372580D01*
X50870475Y-36372580D02*
X50632380Y-36372580D01*
X50632380Y-36372580D02*
X50537142Y-36420200D01*
X50537142Y-36420200D02*
X50489523Y-36467819D01*
X50489523Y-36467819D02*
X50441904Y-36563057D01*
X50441904Y-36563057D02*
X50441904Y-36658295D01*
X50441904Y-36658295D02*
X50489523Y-36753533D01*
X50489523Y-36753533D02*
X50537142Y-36801152D01*
X50537142Y-36801152D02*
X50632380Y-36848771D01*
X50632380Y-36848771D02*
X50822856Y-36896390D01*
X50822856Y-36896390D02*
X50918094Y-36944009D01*
X50918094Y-36944009D02*
X50965713Y-36991628D01*
X50965713Y-36991628D02*
X51013332Y-37086866D01*
X51013332Y-37086866D02*
X51013332Y-37182104D01*
X51013332Y-37182104D02*
X50965713Y-37277342D01*
X50965713Y-37277342D02*
X50918094Y-37324961D01*
X50918094Y-37324961D02*
X50822856Y-37372580D01*
X50822856Y-37372580D02*
X50584761Y-37372580D01*
X50584761Y-37372580D02*
X50441904Y-37324961D01*
X50108570Y-37372580D02*
X49870475Y-36372580D01*
X49870475Y-36372580D02*
X49679999Y-37086866D01*
X49679999Y-37086866D02*
X49489523Y-36372580D01*
X49489523Y-36372580D02*
X49251428Y-37372580D01*
X48965713Y-37372580D02*
X48346666Y-37372580D01*
X48346666Y-37372580D02*
X48679999Y-36991628D01*
X48679999Y-36991628D02*
X48537142Y-36991628D01*
X48537142Y-36991628D02*
X48441904Y-36944009D01*
X48441904Y-36944009D02*
X48394285Y-36896390D01*
X48394285Y-36896390D02*
X48346666Y-36801152D01*
X48346666Y-36801152D02*
X48346666Y-36563057D01*
X48346666Y-36563057D02*
X48394285Y-36467819D01*
X48394285Y-36467819D02*
X48441904Y-36420200D01*
X48441904Y-36420200D02*
X48537142Y-36372580D01*
X48537142Y-36372580D02*
X48822856Y-36372580D01*
X48822856Y-36372580D02*
X48918094Y-36420200D01*
X48918094Y-36420200D02*
X48965713Y-36467819D01*
%TO.C,SW5*%
X51973332Y-121630200D02*
X51830475Y-121582580D01*
X51830475Y-121582580D02*
X51592380Y-121582580D01*
X51592380Y-121582580D02*
X51497142Y-121630200D01*
X51497142Y-121630200D02*
X51449523Y-121677819D01*
X51449523Y-121677819D02*
X51401904Y-121773057D01*
X51401904Y-121773057D02*
X51401904Y-121868295D01*
X51401904Y-121868295D02*
X51449523Y-121963533D01*
X51449523Y-121963533D02*
X51497142Y-122011152D01*
X51497142Y-122011152D02*
X51592380Y-122058771D01*
X51592380Y-122058771D02*
X51782856Y-122106390D01*
X51782856Y-122106390D02*
X51878094Y-122154009D01*
X51878094Y-122154009D02*
X51925713Y-122201628D01*
X51925713Y-122201628D02*
X51973332Y-122296866D01*
X51973332Y-122296866D02*
X51973332Y-122392104D01*
X51973332Y-122392104D02*
X51925713Y-122487342D01*
X51925713Y-122487342D02*
X51878094Y-122534961D01*
X51878094Y-122534961D02*
X51782856Y-122582580D01*
X51782856Y-122582580D02*
X51544761Y-122582580D01*
X51544761Y-122582580D02*
X51401904Y-122534961D01*
X51068570Y-122582580D02*
X50830475Y-121582580D01*
X50830475Y-121582580D02*
X50639999Y-122296866D01*
X50639999Y-122296866D02*
X50449523Y-121582580D01*
X50449523Y-121582580D02*
X50211428Y-122582580D01*
X49354285Y-122582580D02*
X49830475Y-122582580D01*
X49830475Y-122582580D02*
X49878094Y-122106390D01*
X49878094Y-122106390D02*
X49830475Y-122154009D01*
X49830475Y-122154009D02*
X49735237Y-122201628D01*
X49735237Y-122201628D02*
X49497142Y-122201628D01*
X49497142Y-122201628D02*
X49401904Y-122154009D01*
X49401904Y-122154009D02*
X49354285Y-122106390D01*
X49354285Y-122106390D02*
X49306666Y-122011152D01*
X49306666Y-122011152D02*
X49306666Y-121773057D01*
X49306666Y-121773057D02*
X49354285Y-121677819D01*
X49354285Y-121677819D02*
X49401904Y-121630200D01*
X49401904Y-121630200D02*
X49497142Y-121582580D01*
X49497142Y-121582580D02*
X49735237Y-121582580D01*
X49735237Y-121582580D02*
X49830475Y-121630200D01*
X49830475Y-121630200D02*
X49878094Y-121677819D01*
%TO.C,H7*%
X95838095Y-74857419D02*
X95838095Y-73857419D01*
X95838095Y-74333609D02*
X96409523Y-74333609D01*
X96409523Y-74857419D02*
X96409523Y-73857419D01*
X96790476Y-73857419D02*
X97457142Y-73857419D01*
X97457142Y-73857419D02*
X97028571Y-74857419D01*
D12*
%TO.C,A1*%
X85780714Y-114419104D02*
X86256904Y-114419104D01*
X85685476Y-114704819D02*
X86018809Y-113704819D01*
X86018809Y-113704819D02*
X86352142Y-114704819D01*
X87209285Y-114704819D02*
X86637857Y-114704819D01*
X86923571Y-114704819D02*
X86923571Y-113704819D01*
X86923571Y-113704819D02*
X86828333Y-113847676D01*
X86828333Y-113847676D02*
X86733095Y-113942914D01*
X86733095Y-113942914D02*
X86637857Y-113990533D01*
X87756904Y-74155180D02*
X87756904Y-73345657D01*
X87756904Y-73345657D02*
X87709285Y-73250419D01*
X87709285Y-73250419D02*
X87661666Y-73202800D01*
X87661666Y-73202800D02*
X87566428Y-73155180D01*
X87566428Y-73155180D02*
X87375952Y-73155180D01*
X87375952Y-73155180D02*
X87280714Y-73202800D01*
X87280714Y-73202800D02*
X87233095Y-73250419D01*
X87233095Y-73250419D02*
X87185476Y-73345657D01*
X87185476Y-73345657D02*
X87185476Y-74155180D01*
X86756904Y-73202800D02*
X86614047Y-73155180D01*
X86614047Y-73155180D02*
X86375952Y-73155180D01*
X86375952Y-73155180D02*
X86280714Y-73202800D01*
X86280714Y-73202800D02*
X86233095Y-73250419D01*
X86233095Y-73250419D02*
X86185476Y-73345657D01*
X86185476Y-73345657D02*
X86185476Y-73440895D01*
X86185476Y-73440895D02*
X86233095Y-73536133D01*
X86233095Y-73536133D02*
X86280714Y-73583752D01*
X86280714Y-73583752D02*
X86375952Y-73631371D01*
X86375952Y-73631371D02*
X86566428Y-73678990D01*
X86566428Y-73678990D02*
X86661666Y-73726609D01*
X86661666Y-73726609D02*
X86709285Y-73774228D01*
X86709285Y-73774228D02*
X86756904Y-73869466D01*
X86756904Y-73869466D02*
X86756904Y-73964704D01*
X86756904Y-73964704D02*
X86709285Y-74059942D01*
X86709285Y-74059942D02*
X86661666Y-74107561D01*
X86661666Y-74107561D02*
X86566428Y-74155180D01*
X86566428Y-74155180D02*
X86328333Y-74155180D01*
X86328333Y-74155180D02*
X86185476Y-74107561D01*
X85423571Y-73678990D02*
X85280714Y-73631371D01*
X85280714Y-73631371D02*
X85233095Y-73583752D01*
X85233095Y-73583752D02*
X85185476Y-73488514D01*
X85185476Y-73488514D02*
X85185476Y-73345657D01*
X85185476Y-73345657D02*
X85233095Y-73250419D01*
X85233095Y-73250419D02*
X85280714Y-73202800D01*
X85280714Y-73202800D02*
X85375952Y-73155180D01*
X85375952Y-73155180D02*
X85756904Y-73155180D01*
X85756904Y-73155180D02*
X85756904Y-74155180D01*
X85756904Y-74155180D02*
X85423571Y-74155180D01*
X85423571Y-74155180D02*
X85328333Y-74107561D01*
X85328333Y-74107561D02*
X85280714Y-74059942D01*
X85280714Y-74059942D02*
X85233095Y-73964704D01*
X85233095Y-73964704D02*
X85233095Y-73869466D01*
X85233095Y-73869466D02*
X85280714Y-73774228D01*
X85280714Y-73774228D02*
X85328333Y-73726609D01*
X85328333Y-73726609D02*
X85423571Y-73678990D01*
X85423571Y-73678990D02*
X85756904Y-73678990D01*
D11*
%TO.C,H6*%
X73893095Y-57887419D02*
X73893095Y-56887419D01*
X73893095Y-57363609D02*
X74464523Y-57363609D01*
X74464523Y-57887419D02*
X74464523Y-56887419D01*
X75369285Y-56887419D02*
X75178809Y-56887419D01*
X75178809Y-56887419D02*
X75083571Y-56935038D01*
X75083571Y-56935038D02*
X75035952Y-56982657D01*
X75035952Y-56982657D02*
X74940714Y-57125514D01*
X74940714Y-57125514D02*
X74893095Y-57315990D01*
X74893095Y-57315990D02*
X74893095Y-57696942D01*
X74893095Y-57696942D02*
X74940714Y-57792180D01*
X74940714Y-57792180D02*
X74988333Y-57839800D01*
X74988333Y-57839800D02*
X75083571Y-57887419D01*
X75083571Y-57887419D02*
X75274047Y-57887419D01*
X75274047Y-57887419D02*
X75369285Y-57839800D01*
X75369285Y-57839800D02*
X75416904Y-57792180D01*
X75416904Y-57792180D02*
X75464523Y-57696942D01*
X75464523Y-57696942D02*
X75464523Y-57458847D01*
X75464523Y-57458847D02*
X75416904Y-57363609D01*
X75416904Y-57363609D02*
X75369285Y-57315990D01*
X75369285Y-57315990D02*
X75274047Y-57268371D01*
X75274047Y-57268371D02*
X75083571Y-57268371D01*
X75083571Y-57268371D02*
X74988333Y-57315990D01*
X74988333Y-57315990D02*
X74940714Y-57363609D01*
X74940714Y-57363609D02*
X74893095Y-57458847D01*
D12*
%TO.C,Q2*%
X58390057Y-122965238D02*
X58342438Y-123060476D01*
X58342438Y-123060476D02*
X58247200Y-123155714D01*
X58247200Y-123155714D02*
X58104342Y-123298571D01*
X58104342Y-123298571D02*
X58056723Y-123393809D01*
X58056723Y-123393809D02*
X58056723Y-123489047D01*
X58294819Y-123441428D02*
X58247200Y-123536666D01*
X58247200Y-123536666D02*
X58151961Y-123631904D01*
X58151961Y-123631904D02*
X57961485Y-123679523D01*
X57961485Y-123679523D02*
X57628152Y-123679523D01*
X57628152Y-123679523D02*
X57437676Y-123631904D01*
X57437676Y-123631904D02*
X57342438Y-123536666D01*
X57342438Y-123536666D02*
X57294819Y-123441428D01*
X57294819Y-123441428D02*
X57294819Y-123250952D01*
X57294819Y-123250952D02*
X57342438Y-123155714D01*
X57342438Y-123155714D02*
X57437676Y-123060476D01*
X57437676Y-123060476D02*
X57628152Y-123012857D01*
X57628152Y-123012857D02*
X57961485Y-123012857D01*
X57961485Y-123012857D02*
X58151961Y-123060476D01*
X58151961Y-123060476D02*
X58247200Y-123155714D01*
X58247200Y-123155714D02*
X58294819Y-123250952D01*
X58294819Y-123250952D02*
X58294819Y-123441428D01*
X57390057Y-122631904D02*
X57342438Y-122584285D01*
X57342438Y-122584285D02*
X57294819Y-122489047D01*
X57294819Y-122489047D02*
X57294819Y-122250952D01*
X57294819Y-122250952D02*
X57342438Y-122155714D01*
X57342438Y-122155714D02*
X57390057Y-122108095D01*
X57390057Y-122108095D02*
X57485295Y-122060476D01*
X57485295Y-122060476D02*
X57580533Y-122060476D01*
X57580533Y-122060476D02*
X57723390Y-122108095D01*
X57723390Y-122108095D02*
X58294819Y-122679523D01*
X58294819Y-122679523D02*
X58294819Y-122060476D01*
%TO.C,R4*%
X66458333Y-90284819D02*
X66125000Y-89808628D01*
X65886905Y-90284819D02*
X65886905Y-89284819D01*
X65886905Y-89284819D02*
X66267857Y-89284819D01*
X66267857Y-89284819D02*
X66363095Y-89332438D01*
X66363095Y-89332438D02*
X66410714Y-89380057D01*
X66410714Y-89380057D02*
X66458333Y-89475295D01*
X66458333Y-89475295D02*
X66458333Y-89618152D01*
X66458333Y-89618152D02*
X66410714Y-89713390D01*
X66410714Y-89713390D02*
X66363095Y-89761009D01*
X66363095Y-89761009D02*
X66267857Y-89808628D01*
X66267857Y-89808628D02*
X65886905Y-89808628D01*
X67315476Y-89618152D02*
X67315476Y-90284819D01*
X67077381Y-89237200D02*
X66839286Y-89951485D01*
X66839286Y-89951485D02*
X67458333Y-89951485D01*
D11*
%TO.C,TB3*%
X40402580Y-75578095D02*
X40402580Y-76149523D01*
X39402580Y-75863809D02*
X40402580Y-75863809D01*
X39926390Y-76816190D02*
X39878771Y-76959047D01*
X39878771Y-76959047D02*
X39831152Y-77006666D01*
X39831152Y-77006666D02*
X39735914Y-77054285D01*
X39735914Y-77054285D02*
X39593057Y-77054285D01*
X39593057Y-77054285D02*
X39497819Y-77006666D01*
X39497819Y-77006666D02*
X39450200Y-76959047D01*
X39450200Y-76959047D02*
X39402580Y-76863809D01*
X39402580Y-76863809D02*
X39402580Y-76482857D01*
X39402580Y-76482857D02*
X40402580Y-76482857D01*
X40402580Y-76482857D02*
X40402580Y-76816190D01*
X40402580Y-76816190D02*
X40354961Y-76911428D01*
X40354961Y-76911428D02*
X40307342Y-76959047D01*
X40307342Y-76959047D02*
X40212104Y-77006666D01*
X40212104Y-77006666D02*
X40116866Y-77006666D01*
X40116866Y-77006666D02*
X40021628Y-76959047D01*
X40021628Y-76959047D02*
X39974009Y-76911428D01*
X39974009Y-76911428D02*
X39926390Y-76816190D01*
X39926390Y-76816190D02*
X39926390Y-76482857D01*
X40402580Y-77387619D02*
X40402580Y-78006666D01*
X40402580Y-78006666D02*
X40021628Y-77673333D01*
X40021628Y-77673333D02*
X40021628Y-77816190D01*
X40021628Y-77816190D02*
X39974009Y-77911428D01*
X39974009Y-77911428D02*
X39926390Y-77959047D01*
X39926390Y-77959047D02*
X39831152Y-78006666D01*
X39831152Y-78006666D02*
X39593057Y-78006666D01*
X39593057Y-78006666D02*
X39497819Y-77959047D01*
X39497819Y-77959047D02*
X39450200Y-77911428D01*
X39450200Y-77911428D02*
X39402580Y-77816190D01*
X39402580Y-77816190D02*
X39402580Y-77530476D01*
X39402580Y-77530476D02*
X39450200Y-77435238D01*
X39450200Y-77435238D02*
X39497819Y-77387619D01*
D12*
%TO.C,R7*%
X65833333Y-141184819D02*
X65500000Y-140708628D01*
X65261905Y-141184819D02*
X65261905Y-140184819D01*
X65261905Y-140184819D02*
X65642857Y-140184819D01*
X65642857Y-140184819D02*
X65738095Y-140232438D01*
X65738095Y-140232438D02*
X65785714Y-140280057D01*
X65785714Y-140280057D02*
X65833333Y-140375295D01*
X65833333Y-140375295D02*
X65833333Y-140518152D01*
X65833333Y-140518152D02*
X65785714Y-140613390D01*
X65785714Y-140613390D02*
X65738095Y-140661009D01*
X65738095Y-140661009D02*
X65642857Y-140708628D01*
X65642857Y-140708628D02*
X65261905Y-140708628D01*
X66166667Y-140184819D02*
X66833333Y-140184819D01*
X66833333Y-140184819D02*
X66404762Y-141184819D01*
%TO.C,Q8*%
X58390057Y-156825238D02*
X58342438Y-156920476D01*
X58342438Y-156920476D02*
X58247200Y-157015714D01*
X58247200Y-157015714D02*
X58104342Y-157158571D01*
X58104342Y-157158571D02*
X58056723Y-157253809D01*
X58056723Y-157253809D02*
X58056723Y-157349047D01*
X58294819Y-157301428D02*
X58247200Y-157396666D01*
X58247200Y-157396666D02*
X58151961Y-157491904D01*
X58151961Y-157491904D02*
X57961485Y-157539523D01*
X57961485Y-157539523D02*
X57628152Y-157539523D01*
X57628152Y-157539523D02*
X57437676Y-157491904D01*
X57437676Y-157491904D02*
X57342438Y-157396666D01*
X57342438Y-157396666D02*
X57294819Y-157301428D01*
X57294819Y-157301428D02*
X57294819Y-157110952D01*
X57294819Y-157110952D02*
X57342438Y-157015714D01*
X57342438Y-157015714D02*
X57437676Y-156920476D01*
X57437676Y-156920476D02*
X57628152Y-156872857D01*
X57628152Y-156872857D02*
X57961485Y-156872857D01*
X57961485Y-156872857D02*
X58151961Y-156920476D01*
X58151961Y-156920476D02*
X58247200Y-157015714D01*
X58247200Y-157015714D02*
X58294819Y-157110952D01*
X58294819Y-157110952D02*
X58294819Y-157301428D01*
X57723390Y-156301428D02*
X57675771Y-156396666D01*
X57675771Y-156396666D02*
X57628152Y-156444285D01*
X57628152Y-156444285D02*
X57532914Y-156491904D01*
X57532914Y-156491904D02*
X57485295Y-156491904D01*
X57485295Y-156491904D02*
X57390057Y-156444285D01*
X57390057Y-156444285D02*
X57342438Y-156396666D01*
X57342438Y-156396666D02*
X57294819Y-156301428D01*
X57294819Y-156301428D02*
X57294819Y-156110952D01*
X57294819Y-156110952D02*
X57342438Y-156015714D01*
X57342438Y-156015714D02*
X57390057Y-155968095D01*
X57390057Y-155968095D02*
X57485295Y-155920476D01*
X57485295Y-155920476D02*
X57532914Y-155920476D01*
X57532914Y-155920476D02*
X57628152Y-155968095D01*
X57628152Y-155968095D02*
X57675771Y-156015714D01*
X57675771Y-156015714D02*
X57723390Y-156110952D01*
X57723390Y-156110952D02*
X57723390Y-156301428D01*
X57723390Y-156301428D02*
X57771009Y-156396666D01*
X57771009Y-156396666D02*
X57818628Y-156444285D01*
X57818628Y-156444285D02*
X57913866Y-156491904D01*
X57913866Y-156491904D02*
X58104342Y-156491904D01*
X58104342Y-156491904D02*
X58199580Y-156444285D01*
X58199580Y-156444285D02*
X58247200Y-156396666D01*
X58247200Y-156396666D02*
X58294819Y-156301428D01*
X58294819Y-156301428D02*
X58294819Y-156110952D01*
X58294819Y-156110952D02*
X58247200Y-156015714D01*
X58247200Y-156015714D02*
X58199580Y-155968095D01*
X58199580Y-155968095D02*
X58104342Y-155920476D01*
X58104342Y-155920476D02*
X57913866Y-155920476D01*
X57913866Y-155920476D02*
X57818628Y-155968095D01*
X57818628Y-155968095D02*
X57771009Y-156015714D01*
X57771009Y-156015714D02*
X57723390Y-156110952D01*
%TO.C,R8*%
X65833333Y-158584819D02*
X65500000Y-158108628D01*
X65261905Y-158584819D02*
X65261905Y-157584819D01*
X65261905Y-157584819D02*
X65642857Y-157584819D01*
X65642857Y-157584819D02*
X65738095Y-157632438D01*
X65738095Y-157632438D02*
X65785714Y-157680057D01*
X65785714Y-157680057D02*
X65833333Y-157775295D01*
X65833333Y-157775295D02*
X65833333Y-157918152D01*
X65833333Y-157918152D02*
X65785714Y-158013390D01*
X65785714Y-158013390D02*
X65738095Y-158061009D01*
X65738095Y-158061009D02*
X65642857Y-158108628D01*
X65642857Y-158108628D02*
X65261905Y-158108628D01*
X66404762Y-158013390D02*
X66309524Y-157965771D01*
X66309524Y-157965771D02*
X66261905Y-157918152D01*
X66261905Y-157918152D02*
X66214286Y-157822914D01*
X66214286Y-157822914D02*
X66214286Y-157775295D01*
X66214286Y-157775295D02*
X66261905Y-157680057D01*
X66261905Y-157680057D02*
X66309524Y-157632438D01*
X66309524Y-157632438D02*
X66404762Y-157584819D01*
X66404762Y-157584819D02*
X66595238Y-157584819D01*
X66595238Y-157584819D02*
X66690476Y-157632438D01*
X66690476Y-157632438D02*
X66738095Y-157680057D01*
X66738095Y-157680057D02*
X66785714Y-157775295D01*
X66785714Y-157775295D02*
X66785714Y-157822914D01*
X66785714Y-157822914D02*
X66738095Y-157918152D01*
X66738095Y-157918152D02*
X66690476Y-157965771D01*
X66690476Y-157965771D02*
X66595238Y-158013390D01*
X66595238Y-158013390D02*
X66404762Y-158013390D01*
X66404762Y-158013390D02*
X66309524Y-158061009D01*
X66309524Y-158061009D02*
X66261905Y-158108628D01*
X66261905Y-158108628D02*
X66214286Y-158203866D01*
X66214286Y-158203866D02*
X66214286Y-158394342D01*
X66214286Y-158394342D02*
X66261905Y-158489580D01*
X66261905Y-158489580D02*
X66309524Y-158537200D01*
X66309524Y-158537200D02*
X66404762Y-158584819D01*
X66404762Y-158584819D02*
X66595238Y-158584819D01*
X66595238Y-158584819D02*
X66690476Y-158537200D01*
X66690476Y-158537200D02*
X66738095Y-158489580D01*
X66738095Y-158489580D02*
X66785714Y-158394342D01*
X66785714Y-158394342D02*
X66785714Y-158203866D01*
X66785714Y-158203866D02*
X66738095Y-158108628D01*
X66738095Y-158108628D02*
X66690476Y-158061009D01*
X66690476Y-158061009D02*
X66595238Y-158013390D01*
D11*
%TO.C,TB2*%
X40402580Y-62418095D02*
X40402580Y-62989523D01*
X39402580Y-62703809D02*
X40402580Y-62703809D01*
X39926390Y-63656190D02*
X39878771Y-63799047D01*
X39878771Y-63799047D02*
X39831152Y-63846666D01*
X39831152Y-63846666D02*
X39735914Y-63894285D01*
X39735914Y-63894285D02*
X39593057Y-63894285D01*
X39593057Y-63894285D02*
X39497819Y-63846666D01*
X39497819Y-63846666D02*
X39450200Y-63799047D01*
X39450200Y-63799047D02*
X39402580Y-63703809D01*
X39402580Y-63703809D02*
X39402580Y-63322857D01*
X39402580Y-63322857D02*
X40402580Y-63322857D01*
X40402580Y-63322857D02*
X40402580Y-63656190D01*
X40402580Y-63656190D02*
X40354961Y-63751428D01*
X40354961Y-63751428D02*
X40307342Y-63799047D01*
X40307342Y-63799047D02*
X40212104Y-63846666D01*
X40212104Y-63846666D02*
X40116866Y-63846666D01*
X40116866Y-63846666D02*
X40021628Y-63799047D01*
X40021628Y-63799047D02*
X39974009Y-63751428D01*
X39974009Y-63751428D02*
X39926390Y-63656190D01*
X39926390Y-63656190D02*
X39926390Y-63322857D01*
X40307342Y-64275238D02*
X40354961Y-64322857D01*
X40354961Y-64322857D02*
X40402580Y-64418095D01*
X40402580Y-64418095D02*
X40402580Y-64656190D01*
X40402580Y-64656190D02*
X40354961Y-64751428D01*
X40354961Y-64751428D02*
X40307342Y-64799047D01*
X40307342Y-64799047D02*
X40212104Y-64846666D01*
X40212104Y-64846666D02*
X40116866Y-64846666D01*
X40116866Y-64846666D02*
X39974009Y-64799047D01*
X39974009Y-64799047D02*
X39402580Y-64227619D01*
X39402580Y-64227619D02*
X39402580Y-64846666D01*
%TO.C,SW1*%
X50253332Y-70940200D02*
X50110475Y-70892580D01*
X50110475Y-70892580D02*
X49872380Y-70892580D01*
X49872380Y-70892580D02*
X49777142Y-70940200D01*
X49777142Y-70940200D02*
X49729523Y-70987819D01*
X49729523Y-70987819D02*
X49681904Y-71083057D01*
X49681904Y-71083057D02*
X49681904Y-71178295D01*
X49681904Y-71178295D02*
X49729523Y-71273533D01*
X49729523Y-71273533D02*
X49777142Y-71321152D01*
X49777142Y-71321152D02*
X49872380Y-71368771D01*
X49872380Y-71368771D02*
X50062856Y-71416390D01*
X50062856Y-71416390D02*
X50158094Y-71464009D01*
X50158094Y-71464009D02*
X50205713Y-71511628D01*
X50205713Y-71511628D02*
X50253332Y-71606866D01*
X50253332Y-71606866D02*
X50253332Y-71702104D01*
X50253332Y-71702104D02*
X50205713Y-71797342D01*
X50205713Y-71797342D02*
X50158094Y-71844961D01*
X50158094Y-71844961D02*
X50062856Y-71892580D01*
X50062856Y-71892580D02*
X49824761Y-71892580D01*
X49824761Y-71892580D02*
X49681904Y-71844961D01*
X49348570Y-71892580D02*
X49110475Y-70892580D01*
X49110475Y-70892580D02*
X48919999Y-71606866D01*
X48919999Y-71606866D02*
X48729523Y-70892580D01*
X48729523Y-70892580D02*
X48491428Y-71892580D01*
X47586666Y-70892580D02*
X48158094Y-70892580D01*
X47872380Y-70892580D02*
X47872380Y-71892580D01*
X47872380Y-71892580D02*
X47967618Y-71749723D01*
X47967618Y-71749723D02*
X48062856Y-71654485D01*
X48062856Y-71654485D02*
X48158094Y-71606866D01*
%TO.C,H3*%
X95838095Y-85057419D02*
X95838095Y-84057419D01*
X95838095Y-84533609D02*
X96409523Y-84533609D01*
X96409523Y-85057419D02*
X96409523Y-84057419D01*
X96790476Y-84057419D02*
X97409523Y-84057419D01*
X97409523Y-84057419D02*
X97076190Y-84438371D01*
X97076190Y-84438371D02*
X97219047Y-84438371D01*
X97219047Y-84438371D02*
X97314285Y-84485990D01*
X97314285Y-84485990D02*
X97361904Y-84533609D01*
X97361904Y-84533609D02*
X97409523Y-84628847D01*
X97409523Y-84628847D02*
X97409523Y-84866942D01*
X97409523Y-84866942D02*
X97361904Y-84962180D01*
X97361904Y-84962180D02*
X97314285Y-85009800D01*
X97314285Y-85009800D02*
X97219047Y-85057419D01*
X97219047Y-85057419D02*
X96933333Y-85057419D01*
X96933333Y-85057419D02*
X96838095Y-85009800D01*
X96838095Y-85009800D02*
X96790476Y-84962180D01*
%TO.C,U1*%
X97091904Y-147392580D02*
X97091904Y-146583057D01*
X97091904Y-146583057D02*
X97044285Y-146487819D01*
X97044285Y-146487819D02*
X96996666Y-146440200D01*
X96996666Y-146440200D02*
X96901428Y-146392580D01*
X96901428Y-146392580D02*
X96710952Y-146392580D01*
X96710952Y-146392580D02*
X96615714Y-146440200D01*
X96615714Y-146440200D02*
X96568095Y-146487819D01*
X96568095Y-146487819D02*
X96520476Y-146583057D01*
X96520476Y-146583057D02*
X96520476Y-147392580D01*
X95520476Y-146392580D02*
X96091904Y-146392580D01*
X95806190Y-146392580D02*
X95806190Y-147392580D01*
X95806190Y-147392580D02*
X95901428Y-147249723D01*
X95901428Y-147249723D02*
X95996666Y-147154485D01*
X95996666Y-147154485D02*
X96091904Y-147106866D01*
%TO.C,H5*%
X95838095Y-79957419D02*
X95838095Y-78957419D01*
X95838095Y-79433609D02*
X96409523Y-79433609D01*
X96409523Y-79957419D02*
X96409523Y-78957419D01*
X97361904Y-78957419D02*
X96885714Y-78957419D01*
X96885714Y-78957419D02*
X96838095Y-79433609D01*
X96838095Y-79433609D02*
X96885714Y-79385990D01*
X96885714Y-79385990D02*
X96980952Y-79338371D01*
X96980952Y-79338371D02*
X97219047Y-79338371D01*
X97219047Y-79338371D02*
X97314285Y-79385990D01*
X97314285Y-79385990D02*
X97361904Y-79433609D01*
X97361904Y-79433609D02*
X97409523Y-79528847D01*
X97409523Y-79528847D02*
X97409523Y-79766942D01*
X97409523Y-79766942D02*
X97361904Y-79862180D01*
X97361904Y-79862180D02*
X97314285Y-79909800D01*
X97314285Y-79909800D02*
X97219047Y-79957419D01*
X97219047Y-79957419D02*
X96980952Y-79957419D01*
X96980952Y-79957419D02*
X96885714Y-79909800D01*
X96885714Y-79909800D02*
X96838095Y-79862180D01*
D12*
%TO.C,D7*%
X58224819Y-140138094D02*
X57224819Y-140138094D01*
X57224819Y-140138094D02*
X57224819Y-139899999D01*
X57224819Y-139899999D02*
X57272438Y-139757142D01*
X57272438Y-139757142D02*
X57367676Y-139661904D01*
X57367676Y-139661904D02*
X57462914Y-139614285D01*
X57462914Y-139614285D02*
X57653390Y-139566666D01*
X57653390Y-139566666D02*
X57796247Y-139566666D01*
X57796247Y-139566666D02*
X57986723Y-139614285D01*
X57986723Y-139614285D02*
X58081961Y-139661904D01*
X58081961Y-139661904D02*
X58177200Y-139757142D01*
X58177200Y-139757142D02*
X58224819Y-139899999D01*
X58224819Y-139899999D02*
X58224819Y-140138094D01*
X57224819Y-139233332D02*
X57224819Y-138566666D01*
X57224819Y-138566666D02*
X58224819Y-138995237D01*
X57854819Y-134581904D02*
X56854819Y-134581904D01*
X57854819Y-134010476D02*
X57283390Y-134439047D01*
X56854819Y-134010476D02*
X57426247Y-134581904D01*
D11*
%TO.C,TB6*%
X41342580Y-129748095D02*
X41342580Y-130319523D01*
X40342580Y-130033809D02*
X41342580Y-130033809D01*
X40866390Y-130986190D02*
X40818771Y-131129047D01*
X40818771Y-131129047D02*
X40771152Y-131176666D01*
X40771152Y-131176666D02*
X40675914Y-131224285D01*
X40675914Y-131224285D02*
X40533057Y-131224285D01*
X40533057Y-131224285D02*
X40437819Y-131176666D01*
X40437819Y-131176666D02*
X40390200Y-131129047D01*
X40390200Y-131129047D02*
X40342580Y-131033809D01*
X40342580Y-131033809D02*
X40342580Y-130652857D01*
X40342580Y-130652857D02*
X41342580Y-130652857D01*
X41342580Y-130652857D02*
X41342580Y-130986190D01*
X41342580Y-130986190D02*
X41294961Y-131081428D01*
X41294961Y-131081428D02*
X41247342Y-131129047D01*
X41247342Y-131129047D02*
X41152104Y-131176666D01*
X41152104Y-131176666D02*
X41056866Y-131176666D01*
X41056866Y-131176666D02*
X40961628Y-131129047D01*
X40961628Y-131129047D02*
X40914009Y-131081428D01*
X40914009Y-131081428D02*
X40866390Y-130986190D01*
X40866390Y-130986190D02*
X40866390Y-130652857D01*
X41342580Y-132081428D02*
X41342580Y-131890952D01*
X41342580Y-131890952D02*
X41294961Y-131795714D01*
X41294961Y-131795714D02*
X41247342Y-131748095D01*
X41247342Y-131748095D02*
X41104485Y-131652857D01*
X41104485Y-131652857D02*
X40914009Y-131605238D01*
X40914009Y-131605238D02*
X40533057Y-131605238D01*
X40533057Y-131605238D02*
X40437819Y-131652857D01*
X40437819Y-131652857D02*
X40390200Y-131700476D01*
X40390200Y-131700476D02*
X40342580Y-131795714D01*
X40342580Y-131795714D02*
X40342580Y-131986190D01*
X40342580Y-131986190D02*
X40390200Y-132081428D01*
X40390200Y-132081428D02*
X40437819Y-132129047D01*
X40437819Y-132129047D02*
X40533057Y-132176666D01*
X40533057Y-132176666D02*
X40771152Y-132176666D01*
X40771152Y-132176666D02*
X40866390Y-132129047D01*
X40866390Y-132129047D02*
X40914009Y-132081428D01*
X40914009Y-132081428D02*
X40961628Y-131986190D01*
X40961628Y-131986190D02*
X40961628Y-131795714D01*
X40961628Y-131795714D02*
X40914009Y-131700476D01*
X40914009Y-131700476D02*
X40866390Y-131652857D01*
X40866390Y-131652857D02*
X40771152Y-131605238D01*
D12*
%TO.C,Q5*%
X58390057Y-88495238D02*
X58342438Y-88590476D01*
X58342438Y-88590476D02*
X58247200Y-88685714D01*
X58247200Y-88685714D02*
X58104342Y-88828571D01*
X58104342Y-88828571D02*
X58056723Y-88923809D01*
X58056723Y-88923809D02*
X58056723Y-89019047D01*
X58294819Y-88971428D02*
X58247200Y-89066666D01*
X58247200Y-89066666D02*
X58151961Y-89161904D01*
X58151961Y-89161904D02*
X57961485Y-89209523D01*
X57961485Y-89209523D02*
X57628152Y-89209523D01*
X57628152Y-89209523D02*
X57437676Y-89161904D01*
X57437676Y-89161904D02*
X57342438Y-89066666D01*
X57342438Y-89066666D02*
X57294819Y-88971428D01*
X57294819Y-88971428D02*
X57294819Y-88780952D01*
X57294819Y-88780952D02*
X57342438Y-88685714D01*
X57342438Y-88685714D02*
X57437676Y-88590476D01*
X57437676Y-88590476D02*
X57628152Y-88542857D01*
X57628152Y-88542857D02*
X57961485Y-88542857D01*
X57961485Y-88542857D02*
X58151961Y-88590476D01*
X58151961Y-88590476D02*
X58247200Y-88685714D01*
X58247200Y-88685714D02*
X58294819Y-88780952D01*
X58294819Y-88780952D02*
X58294819Y-88971428D01*
X57294819Y-87638095D02*
X57294819Y-88114285D01*
X57294819Y-88114285D02*
X57771009Y-88161904D01*
X57771009Y-88161904D02*
X57723390Y-88114285D01*
X57723390Y-88114285D02*
X57675771Y-88019047D01*
X57675771Y-88019047D02*
X57675771Y-87780952D01*
X57675771Y-87780952D02*
X57723390Y-87685714D01*
X57723390Y-87685714D02*
X57771009Y-87638095D01*
X57771009Y-87638095D02*
X57866247Y-87590476D01*
X57866247Y-87590476D02*
X58104342Y-87590476D01*
X58104342Y-87590476D02*
X58199580Y-87638095D01*
X58199580Y-87638095D02*
X58247200Y-87685714D01*
X58247200Y-87685714D02*
X58294819Y-87780952D01*
X58294819Y-87780952D02*
X58294819Y-88019047D01*
X58294819Y-88019047D02*
X58247200Y-88114285D01*
X58247200Y-88114285D02*
X58199580Y-88161904D01*
D11*
%TO.C,H2*%
X95838095Y-82457419D02*
X95838095Y-81457419D01*
X95838095Y-81933609D02*
X96409523Y-81933609D01*
X96409523Y-82457419D02*
X96409523Y-81457419D01*
X96838095Y-81552657D02*
X96885714Y-81505038D01*
X96885714Y-81505038D02*
X96980952Y-81457419D01*
X96980952Y-81457419D02*
X97219047Y-81457419D01*
X97219047Y-81457419D02*
X97314285Y-81505038D01*
X97314285Y-81505038D02*
X97361904Y-81552657D01*
X97361904Y-81552657D02*
X97409523Y-81647895D01*
X97409523Y-81647895D02*
X97409523Y-81743133D01*
X97409523Y-81743133D02*
X97361904Y-81885990D01*
X97361904Y-81885990D02*
X96790476Y-82457419D01*
X96790476Y-82457419D02*
X97409523Y-82457419D01*
D12*
%TO.C,D6*%
X58224819Y-123418094D02*
X57224819Y-123418094D01*
X57224819Y-123418094D02*
X57224819Y-123179999D01*
X57224819Y-123179999D02*
X57272438Y-123037142D01*
X57272438Y-123037142D02*
X57367676Y-122941904D01*
X57367676Y-122941904D02*
X57462914Y-122894285D01*
X57462914Y-122894285D02*
X57653390Y-122846666D01*
X57653390Y-122846666D02*
X57796247Y-122846666D01*
X57796247Y-122846666D02*
X57986723Y-122894285D01*
X57986723Y-122894285D02*
X58081961Y-122941904D01*
X58081961Y-122941904D02*
X58177200Y-123037142D01*
X58177200Y-123037142D02*
X58224819Y-123179999D01*
X58224819Y-123179999D02*
X58224819Y-123418094D01*
X57224819Y-121989523D02*
X57224819Y-122179999D01*
X57224819Y-122179999D02*
X57272438Y-122275237D01*
X57272438Y-122275237D02*
X57320057Y-122322856D01*
X57320057Y-122322856D02*
X57462914Y-122418094D01*
X57462914Y-122418094D02*
X57653390Y-122465713D01*
X57653390Y-122465713D02*
X58034342Y-122465713D01*
X58034342Y-122465713D02*
X58129580Y-122418094D01*
X58129580Y-122418094D02*
X58177200Y-122370475D01*
X58177200Y-122370475D02*
X58224819Y-122275237D01*
X58224819Y-122275237D02*
X58224819Y-122084761D01*
X58224819Y-122084761D02*
X58177200Y-121989523D01*
X58177200Y-121989523D02*
X58129580Y-121941904D01*
X58129580Y-121941904D02*
X58034342Y-121894285D01*
X58034342Y-121894285D02*
X57796247Y-121894285D01*
X57796247Y-121894285D02*
X57701009Y-121941904D01*
X57701009Y-121941904D02*
X57653390Y-121989523D01*
X57653390Y-121989523D02*
X57605771Y-122084761D01*
X57605771Y-122084761D02*
X57605771Y-122275237D01*
X57605771Y-122275237D02*
X57653390Y-122370475D01*
X57653390Y-122370475D02*
X57701009Y-122418094D01*
X57701009Y-122418094D02*
X57796247Y-122465713D01*
X57854819Y-117861904D02*
X56854819Y-117861904D01*
X57854819Y-117290476D02*
X57283390Y-117719047D01*
X56854819Y-117290476D02*
X57426247Y-117861904D01*
%TO.C,D2*%
X58224819Y-55328094D02*
X57224819Y-55328094D01*
X57224819Y-55328094D02*
X57224819Y-55089999D01*
X57224819Y-55089999D02*
X57272438Y-54947142D01*
X57272438Y-54947142D02*
X57367676Y-54851904D01*
X57367676Y-54851904D02*
X57462914Y-54804285D01*
X57462914Y-54804285D02*
X57653390Y-54756666D01*
X57653390Y-54756666D02*
X57796247Y-54756666D01*
X57796247Y-54756666D02*
X57986723Y-54804285D01*
X57986723Y-54804285D02*
X58081961Y-54851904D01*
X58081961Y-54851904D02*
X58177200Y-54947142D01*
X58177200Y-54947142D02*
X58224819Y-55089999D01*
X58224819Y-55089999D02*
X58224819Y-55328094D01*
X57320057Y-54375713D02*
X57272438Y-54328094D01*
X57272438Y-54328094D02*
X57224819Y-54232856D01*
X57224819Y-54232856D02*
X57224819Y-53994761D01*
X57224819Y-53994761D02*
X57272438Y-53899523D01*
X57272438Y-53899523D02*
X57320057Y-53851904D01*
X57320057Y-53851904D02*
X57415295Y-53804285D01*
X57415295Y-53804285D02*
X57510533Y-53804285D01*
X57510533Y-53804285D02*
X57653390Y-53851904D01*
X57653390Y-53851904D02*
X58224819Y-54423332D01*
X58224819Y-54423332D02*
X58224819Y-53804285D01*
X57854819Y-49771904D02*
X56854819Y-49771904D01*
X57854819Y-49200476D02*
X57283390Y-49629047D01*
X56854819Y-49200476D02*
X57426247Y-49771904D01*
D11*
%TO.C,TB1*%
X73578095Y-146282419D02*
X74149523Y-146282419D01*
X73863809Y-147282419D02*
X73863809Y-146282419D01*
X74816190Y-146758609D02*
X74959047Y-146806228D01*
X74959047Y-146806228D02*
X75006666Y-146853847D01*
X75006666Y-146853847D02*
X75054285Y-146949085D01*
X75054285Y-146949085D02*
X75054285Y-147091942D01*
X75054285Y-147091942D02*
X75006666Y-147187180D01*
X75006666Y-147187180D02*
X74959047Y-147234800D01*
X74959047Y-147234800D02*
X74863809Y-147282419D01*
X74863809Y-147282419D02*
X74482857Y-147282419D01*
X74482857Y-147282419D02*
X74482857Y-146282419D01*
X74482857Y-146282419D02*
X74816190Y-146282419D01*
X74816190Y-146282419D02*
X74911428Y-146330038D01*
X74911428Y-146330038D02*
X74959047Y-146377657D01*
X74959047Y-146377657D02*
X75006666Y-146472895D01*
X75006666Y-146472895D02*
X75006666Y-146568133D01*
X75006666Y-146568133D02*
X74959047Y-146663371D01*
X74959047Y-146663371D02*
X74911428Y-146710990D01*
X74911428Y-146710990D02*
X74816190Y-146758609D01*
X74816190Y-146758609D02*
X74482857Y-146758609D01*
X76006666Y-147282419D02*
X75435238Y-147282419D01*
X75720952Y-147282419D02*
X75720952Y-146282419D01*
X75720952Y-146282419D02*
X75625714Y-146425276D01*
X75625714Y-146425276D02*
X75530476Y-146520514D01*
X75530476Y-146520514D02*
X75435238Y-146568133D01*
D12*
%TO.C,D5*%
X58224819Y-106538094D02*
X57224819Y-106538094D01*
X57224819Y-106538094D02*
X57224819Y-106299999D01*
X57224819Y-106299999D02*
X57272438Y-106157142D01*
X57272438Y-106157142D02*
X57367676Y-106061904D01*
X57367676Y-106061904D02*
X57462914Y-106014285D01*
X57462914Y-106014285D02*
X57653390Y-105966666D01*
X57653390Y-105966666D02*
X57796247Y-105966666D01*
X57796247Y-105966666D02*
X57986723Y-106014285D01*
X57986723Y-106014285D02*
X58081961Y-106061904D01*
X58081961Y-106061904D02*
X58177200Y-106157142D01*
X58177200Y-106157142D02*
X58224819Y-106299999D01*
X58224819Y-106299999D02*
X58224819Y-106538094D01*
X57224819Y-105061904D02*
X57224819Y-105538094D01*
X57224819Y-105538094D02*
X57701009Y-105585713D01*
X57701009Y-105585713D02*
X57653390Y-105538094D01*
X57653390Y-105538094D02*
X57605771Y-105442856D01*
X57605771Y-105442856D02*
X57605771Y-105204761D01*
X57605771Y-105204761D02*
X57653390Y-105109523D01*
X57653390Y-105109523D02*
X57701009Y-105061904D01*
X57701009Y-105061904D02*
X57796247Y-105014285D01*
X57796247Y-105014285D02*
X58034342Y-105014285D01*
X58034342Y-105014285D02*
X58129580Y-105061904D01*
X58129580Y-105061904D02*
X58177200Y-105109523D01*
X58177200Y-105109523D02*
X58224819Y-105204761D01*
X58224819Y-105204761D02*
X58224819Y-105442856D01*
X58224819Y-105442856D02*
X58177200Y-105538094D01*
X58177200Y-105538094D02*
X58129580Y-105585713D01*
X57854819Y-100981904D02*
X56854819Y-100981904D01*
X57854819Y-100410476D02*
X57283390Y-100839047D01*
X56854819Y-100410476D02*
X57426247Y-100981904D01*
D11*
%TO.C,H1*%
X98103095Y-76917419D02*
X98103095Y-75917419D01*
X98103095Y-76393609D02*
X98674523Y-76393609D01*
X98674523Y-76917419D02*
X98674523Y-75917419D01*
X99674523Y-76917419D02*
X99103095Y-76917419D01*
X99388809Y-76917419D02*
X99388809Y-75917419D01*
X99388809Y-75917419D02*
X99293571Y-76060276D01*
X99293571Y-76060276D02*
X99198333Y-76155514D01*
X99198333Y-76155514D02*
X99103095Y-76203133D01*
%TO.C,H4*%
X95838095Y-87557419D02*
X95838095Y-86557419D01*
X95838095Y-87033609D02*
X96409523Y-87033609D01*
X96409523Y-87557419D02*
X96409523Y-86557419D01*
X97314285Y-86890752D02*
X97314285Y-87557419D01*
X97076190Y-86509800D02*
X96838095Y-87224085D01*
X96838095Y-87224085D02*
X97457142Y-87224085D01*
D12*
%TO.C,Q7*%
X58430057Y-139395238D02*
X58382438Y-139490476D01*
X58382438Y-139490476D02*
X58287200Y-139585714D01*
X58287200Y-139585714D02*
X58144342Y-139728571D01*
X58144342Y-139728571D02*
X58096723Y-139823809D01*
X58096723Y-139823809D02*
X58096723Y-139919047D01*
X58334819Y-139871428D02*
X58287200Y-139966666D01*
X58287200Y-139966666D02*
X58191961Y-140061904D01*
X58191961Y-140061904D02*
X58001485Y-140109523D01*
X58001485Y-140109523D02*
X57668152Y-140109523D01*
X57668152Y-140109523D02*
X57477676Y-140061904D01*
X57477676Y-140061904D02*
X57382438Y-139966666D01*
X57382438Y-139966666D02*
X57334819Y-139871428D01*
X57334819Y-139871428D02*
X57334819Y-139680952D01*
X57334819Y-139680952D02*
X57382438Y-139585714D01*
X57382438Y-139585714D02*
X57477676Y-139490476D01*
X57477676Y-139490476D02*
X57668152Y-139442857D01*
X57668152Y-139442857D02*
X58001485Y-139442857D01*
X58001485Y-139442857D02*
X58191961Y-139490476D01*
X58191961Y-139490476D02*
X58287200Y-139585714D01*
X58287200Y-139585714D02*
X58334819Y-139680952D01*
X58334819Y-139680952D02*
X58334819Y-139871428D01*
X57334819Y-139109523D02*
X57334819Y-138442857D01*
X57334819Y-138442857D02*
X58334819Y-138871428D01*
D11*
%TO.C,H10*%
X78730000Y-148730000D02*
X81240000Y-148730000D01*
X81240000Y-148730000D02*
X81240000Y-151270000D01*
X81240000Y-151270000D02*
X78730000Y-151270000D01*
X78730000Y-151270000D02*
X78730000Y-148730000D01*
%TO.C,H9*%
X84730000Y-148730000D02*
X87240000Y-148730000D01*
X87240000Y-148730000D02*
X87240000Y-151270000D01*
X87240000Y-151270000D02*
X84730000Y-151270000D01*
X84730000Y-151270000D02*
X84730000Y-148730000D01*
D13*
%TO.C,D8*%
X55300000Y-153070000D02*
X55300000Y-154090000D01*
X56770000Y-154090000D02*
X53830000Y-154090000D01*
X53830000Y-154090000D02*
X53830000Y-159530000D01*
X56770000Y-154870000D02*
X53830000Y-154870000D01*
X56770000Y-154990000D02*
X53830000Y-154990000D01*
X56770000Y-155110000D02*
X53830000Y-155110000D01*
X56770000Y-159530000D02*
X56770000Y-154090000D01*
X53830000Y-159530000D02*
X56770000Y-159530000D01*
X55300000Y-160550000D02*
X55300000Y-159530000D01*
%TO.C,D1*%
X55300000Y-33660000D02*
X55300000Y-34680000D01*
X56770000Y-34680000D02*
X53830000Y-34680000D01*
X53830000Y-34680000D02*
X53830000Y-40120000D01*
X56770000Y-35460000D02*
X53830000Y-35460000D01*
X56770000Y-35580000D02*
X53830000Y-35580000D01*
X56770000Y-35700000D02*
X53830000Y-35700000D01*
X56770000Y-40120000D02*
X56770000Y-34680000D01*
X53830000Y-40120000D02*
X56770000Y-40120000D01*
X55300000Y-41140000D02*
X55300000Y-40120000D01*
D11*
%TO.C,TB5*%
X29600000Y-96500000D02*
X21730000Y-96500000D01*
X21730000Y-96500000D02*
X21730000Y-106520000D01*
X21730000Y-106520000D02*
X29600000Y-106520000D01*
X29600000Y-106520000D02*
X29600000Y-96500000D01*
D13*
%TO.C,D3*%
X55300000Y-76040000D02*
X55300000Y-75020000D01*
X53830000Y-75020000D02*
X56770000Y-75020000D01*
X56770000Y-75020000D02*
X56770000Y-69580000D01*
X56770000Y-70600000D02*
X53830000Y-70600000D01*
X56770000Y-70480000D02*
X53830000Y-70480000D01*
X56770000Y-70360000D02*
X53830000Y-70360000D01*
X53830000Y-69580000D02*
X53830000Y-75020000D01*
X56770000Y-69580000D02*
X53830000Y-69580000D01*
X55300000Y-68560000D02*
X55300000Y-69580000D01*
D11*
%TO.C,H8*%
X97555000Y-74900000D02*
X100065000Y-74900000D01*
X100065000Y-74900000D02*
X100065000Y-77440000D01*
X100065000Y-77440000D02*
X97555000Y-77440000D01*
X97555000Y-77440000D02*
X97555000Y-74900000D01*
D13*
%TO.C,Q4*%
X63250000Y-73730000D02*
X63250000Y-70130000D01*
X58800000Y-71930000D02*
G75*
G03*
X63238478Y-73768478I2600000J0D01*
G01*
X63238478Y-70091522D02*
G75*
G03*
X58800000Y-71930000I-1838478J-1838478D01*
G01*
D11*
%TO.C,SW4*%
X52000000Y-96790000D02*
X33000000Y-96790000D01*
X33000000Y-96790000D02*
X33000000Y-81290000D01*
X33000000Y-81290000D02*
X52000000Y-81290000D01*
X52000000Y-81290000D02*
X52000000Y-96790000D01*
%TO.C,SW7*%
X52000000Y-147400000D02*
X33000000Y-147400000D01*
X33000000Y-147400000D02*
X33000000Y-131900000D01*
X33000000Y-131900000D02*
X52000000Y-131900000D01*
X52000000Y-131900000D02*
X52000000Y-147400000D01*
D13*
%TO.C,Q6*%
X63250000Y-107670000D02*
X63250000Y-104070000D01*
X58800000Y-105870000D02*
G75*
G03*
X63238478Y-107708478I2600000J0D01*
G01*
X63238478Y-104031522D02*
G75*
G03*
X58800000Y-105870000I-1838478J-1838478D01*
G01*
%TO.C,R2*%
X66562258Y-54922500D02*
X66087742Y-54922500D01*
X66562258Y-53877500D02*
X66087742Y-53877500D01*
%TO.C,Q3*%
X63250000Y-56270000D02*
X63250000Y-52670000D01*
X58800000Y-54470000D02*
G75*
G03*
X63238478Y-56308478I2600000J0D01*
G01*
X63238478Y-52631522D02*
G75*
G03*
X58800000Y-54470000I-1838478J-1838478D01*
G01*
%TO.C,Q1*%
X63250000Y-39300000D02*
X63250000Y-35700000D01*
X58800000Y-37500000D02*
G75*
G03*
X63238478Y-39338478I2600000J0D01*
G01*
X63238478Y-35661522D02*
G75*
G03*
X58800000Y-37500000I-1838478J-1838478D01*
G01*
D11*
%TO.C,SW6*%
X52000000Y-130550000D02*
X33000000Y-130550000D01*
X33000000Y-130550000D02*
X33000000Y-115050000D01*
X33000000Y-115050000D02*
X52000000Y-115050000D01*
X52000000Y-115050000D02*
X52000000Y-130550000D01*
%TO.C,SW8*%
X52000000Y-164450000D02*
X33000000Y-164450000D01*
X33000000Y-164450000D02*
X33000000Y-148950000D01*
X33000000Y-148950000D02*
X52000000Y-148950000D01*
X52000000Y-148950000D02*
X52000000Y-164450000D01*
D13*
%TO.C,R1*%
X66662258Y-38022500D02*
X66187742Y-38022500D01*
X66662258Y-36977500D02*
X66187742Y-36977500D01*
D11*
%TO.C,SW2*%
X52000000Y-62340000D02*
X33000000Y-62340000D01*
X33000000Y-62340000D02*
X33000000Y-46840000D01*
X33000000Y-46840000D02*
X52000000Y-46840000D01*
X52000000Y-46840000D02*
X52000000Y-62340000D01*
D13*
%TO.C,R5*%
X66237258Y-106372500D02*
X65762742Y-106372500D01*
X66237258Y-105327500D02*
X65762742Y-105327500D01*
%TO.C,D4*%
X54850000Y-84700000D02*
X54850000Y-85720000D01*
X56320000Y-85720000D02*
X53380000Y-85720000D01*
X53380000Y-85720000D02*
X53380000Y-91160000D01*
X56320000Y-86500000D02*
X53380000Y-86500000D01*
X56320000Y-86620000D02*
X53380000Y-86620000D01*
X56320000Y-86740000D02*
X53380000Y-86740000D01*
X56320000Y-91160000D02*
X56320000Y-85720000D01*
X53380000Y-91160000D02*
X56320000Y-91160000D01*
X54850000Y-92180000D02*
X54850000Y-91160000D01*
%TO.C,R3*%
X66562258Y-72422500D02*
X66087742Y-72422500D01*
X66562258Y-71377500D02*
X66087742Y-71377500D01*
%TO.C,R6*%
X66337258Y-123422500D02*
X65862742Y-123422500D01*
X66337258Y-122377500D02*
X65862742Y-122377500D01*
D11*
%TO.C,TB4*%
X29600000Y-84140000D02*
X21730000Y-84140000D01*
X21730000Y-84140000D02*
X21730000Y-94160000D01*
X21730000Y-94160000D02*
X29600000Y-94160000D01*
X29600000Y-94160000D02*
X29600000Y-84140000D01*
%TO.C,SW3*%
X52000000Y-79880000D02*
X33000000Y-79880000D01*
X33000000Y-79880000D02*
X33000000Y-64380000D01*
X33000000Y-64380000D02*
X52000000Y-64380000D01*
X52000000Y-64380000D02*
X52000000Y-79880000D01*
%TO.C,SW5*%
X52000000Y-113650000D02*
X33000000Y-113650000D01*
X33000000Y-113650000D02*
X33000000Y-98150000D01*
X33000000Y-98150000D02*
X52000000Y-98150000D01*
X52000000Y-98150000D02*
X52000000Y-113650000D01*
%TO.C,H7*%
X97555000Y-72360000D02*
X100065000Y-72360000D01*
X100065000Y-72360000D02*
X100065000Y-74900000D01*
X100065000Y-74900000D02*
X97555000Y-74900000D01*
X97555000Y-74900000D02*
X97555000Y-72360000D01*
D13*
%TO.C,A1*%
X95515000Y-113110000D02*
X95515000Y-110440000D01*
X95515000Y-107900000D02*
X95515000Y-69670000D01*
X95515000Y-69670000D02*
X90435000Y-69670000D01*
X92845000Y-110440000D02*
X95515000Y-110440000D01*
X92845000Y-107900000D02*
X95515000Y-107900000D01*
X92845000Y-107900000D02*
X92845000Y-110440000D01*
X92845000Y-107900000D02*
X92845000Y-72340000D01*
X92845000Y-72340000D02*
X95515000Y-72340000D01*
X90435000Y-77550000D02*
X82555000Y-77550000D01*
X90435000Y-67130000D02*
X90435000Y-77550000D01*
X82555000Y-77550000D02*
X82555000Y-67130000D01*
X82555000Y-67130000D02*
X90435000Y-67130000D01*
X80145000Y-110440000D02*
X80145000Y-72340000D01*
X80145000Y-110440000D02*
X77475000Y-110440000D01*
X80145000Y-72340000D02*
X77475000Y-72340000D01*
X77475000Y-113110000D02*
X95515000Y-113110000D01*
X77475000Y-69670000D02*
X82555000Y-69670000D01*
X77475000Y-69670000D02*
X77475000Y-113110000D01*
D11*
%TO.C,H6*%
X73345000Y-72340000D02*
X75855000Y-72340000D01*
X75855000Y-72340000D02*
X75855000Y-74880000D01*
X75855000Y-74880000D02*
X73345000Y-74880000D01*
X73345000Y-74880000D02*
X73345000Y-72340000D01*
D13*
%TO.C,Q2*%
X63250000Y-124670000D02*
X63250000Y-121070000D01*
X58800000Y-122870000D02*
G75*
G03*
X63238478Y-124708478I2600000J0D01*
G01*
X63238478Y-121031522D02*
G75*
G03*
X58800000Y-122870000I-1838478J-1838478D01*
G01*
%TO.C,R4*%
X66862258Y-87877500D02*
X66387742Y-87877500D01*
X66862258Y-88922500D02*
X66387742Y-88922500D01*
D11*
%TO.C,TB3*%
X29600000Y-71760000D02*
X21730000Y-71760000D01*
X21730000Y-71760000D02*
X21730000Y-81780000D01*
X21730000Y-81780000D02*
X29600000Y-81780000D01*
X29600000Y-81780000D02*
X29600000Y-71760000D01*
D13*
%TO.C,R7*%
X66237258Y-139822500D02*
X65762742Y-139822500D01*
X66237258Y-138777500D02*
X65762742Y-138777500D01*
%TO.C,Q8*%
X63250000Y-158530000D02*
X63250000Y-154930000D01*
X58800000Y-156730000D02*
G75*
G03*
X63238478Y-158568478I2600000J0D01*
G01*
X63238478Y-154891522D02*
G75*
G03*
X58800000Y-156730000I-1838478J-1838478D01*
G01*
%TO.C,R8*%
X66237258Y-157222500D02*
X65762742Y-157222500D01*
X66237258Y-156177500D02*
X65762742Y-156177500D01*
D11*
%TO.C,TB2*%
X29600000Y-58600000D02*
X21730000Y-58600000D01*
X21730000Y-58600000D02*
X21730000Y-68620000D01*
X21730000Y-68620000D02*
X29600000Y-68620000D01*
X29600000Y-68620000D02*
X29600000Y-58600000D01*
%TO.C,SW1*%
X52000000Y-45250000D02*
X33000000Y-45250000D01*
X33000000Y-45250000D02*
X33000000Y-29750000D01*
X33000000Y-29750000D02*
X52000000Y-29750000D01*
X52000000Y-29750000D02*
X52000000Y-45250000D01*
%TO.C,H3*%
X97555000Y-82520000D02*
X100065000Y-82520000D01*
X100065000Y-82520000D02*
X100065000Y-85060000D01*
X100065000Y-85060000D02*
X97555000Y-85060000D01*
X97555000Y-85060000D02*
X97555000Y-82520000D01*
%TO.C,U1*%
X98130000Y-143950000D02*
X73130000Y-143950000D01*
X73130000Y-143950000D02*
X73130000Y-120950000D01*
X73130000Y-120950000D02*
X98130000Y-120950000D01*
X98130000Y-120950000D02*
X98130000Y-143950000D01*
%TO.C,H5*%
X97555000Y-77400000D02*
X100065000Y-77400000D01*
X100065000Y-77400000D02*
X100065000Y-79940000D01*
X100065000Y-79940000D02*
X97555000Y-79940000D01*
X97555000Y-79940000D02*
X97555000Y-77400000D01*
D13*
%TO.C,D7*%
X55300000Y-135660000D02*
X55300000Y-136680000D01*
X56770000Y-136680000D02*
X53830000Y-136680000D01*
X53830000Y-136680000D02*
X53830000Y-142120000D01*
X56770000Y-137460000D02*
X53830000Y-137460000D01*
X56770000Y-137580000D02*
X53830000Y-137580000D01*
X56770000Y-137700000D02*
X53830000Y-137700000D01*
X56770000Y-142120000D02*
X56770000Y-136680000D01*
X53830000Y-142120000D02*
X56770000Y-142120000D01*
X55300000Y-143140000D02*
X55300000Y-142120000D01*
D11*
%TO.C,TB6*%
X29600000Y-108900000D02*
X21730000Y-108900000D01*
X21730000Y-108900000D02*
X21730000Y-118920000D01*
X21730000Y-118920000D02*
X29600000Y-118920000D01*
X29600000Y-118920000D02*
X29600000Y-108900000D01*
D13*
%TO.C,Q5*%
X63250000Y-90200000D02*
X63250000Y-86600000D01*
X58800000Y-88400000D02*
G75*
G03*
X63238478Y-90238478I2600000J0D01*
G01*
X63238478Y-86561522D02*
G75*
G03*
X58800000Y-88400000I-1838478J-1838478D01*
G01*
D11*
%TO.C,H2*%
X97555000Y-79980000D02*
X100065000Y-79980000D01*
X100065000Y-79980000D02*
X100065000Y-82520000D01*
X100065000Y-82520000D02*
X97555000Y-82520000D01*
X97555000Y-82520000D02*
X97555000Y-79980000D01*
D13*
%TO.C,D6*%
X55300000Y-118940000D02*
X55300000Y-119960000D01*
X56770000Y-119960000D02*
X53830000Y-119960000D01*
X53830000Y-119960000D02*
X53830000Y-125400000D01*
X56770000Y-120740000D02*
X53830000Y-120740000D01*
X56770000Y-120860000D02*
X53830000Y-120860000D01*
X56770000Y-120980000D02*
X53830000Y-120980000D01*
X56770000Y-125400000D02*
X56770000Y-119960000D01*
X53830000Y-125400000D02*
X56770000Y-125400000D01*
X55300000Y-126420000D02*
X55300000Y-125400000D01*
%TO.C,D2*%
X55300000Y-50850000D02*
X55300000Y-51870000D01*
X56770000Y-51870000D02*
X53830000Y-51870000D01*
X53830000Y-51870000D02*
X53830000Y-57310000D01*
X56770000Y-52650000D02*
X53830000Y-52650000D01*
X56770000Y-52770000D02*
X53830000Y-52770000D01*
X56770000Y-52890000D02*
X53830000Y-52890000D01*
X56770000Y-57310000D02*
X56770000Y-51870000D01*
X53830000Y-57310000D02*
X56770000Y-57310000D01*
X55300000Y-58330000D02*
X55300000Y-57310000D01*
D11*
%TO.C,TB1*%
X69760000Y-157085000D02*
X79780000Y-157085000D01*
X79780000Y-157085000D02*
X79780000Y-164955000D01*
X79780000Y-164955000D02*
X69760000Y-164955000D01*
X69760000Y-164955000D02*
X69760000Y-157085000D01*
D13*
%TO.C,D5*%
X55300000Y-102060000D02*
X55300000Y-103080000D01*
X56770000Y-103080000D02*
X53830000Y-103080000D01*
X53830000Y-103080000D02*
X53830000Y-108520000D01*
X56770000Y-103860000D02*
X53830000Y-103860000D01*
X56770000Y-103980000D02*
X53830000Y-103980000D01*
X56770000Y-104100000D02*
X53830000Y-104100000D01*
X56770000Y-108520000D02*
X56770000Y-103080000D01*
X53830000Y-108520000D02*
X56770000Y-108520000D01*
X55300000Y-109540000D02*
X55300000Y-108520000D01*
D11*
%TO.C,H1*%
X97555000Y-91370000D02*
X100065000Y-91370000D01*
X100065000Y-91370000D02*
X100065000Y-101610000D01*
X100065000Y-101610000D02*
X97555000Y-101610000D01*
X97555000Y-101610000D02*
X97555000Y-91370000D01*
%TO.C,H4*%
X97555000Y-85060000D02*
X100065000Y-85060000D01*
X100065000Y-85060000D02*
X100065000Y-87600000D01*
X100065000Y-87600000D02*
X97555000Y-87600000D01*
X97555000Y-87600000D02*
X97555000Y-85060000D01*
D13*
%TO.C,Q7*%
X63290000Y-141100000D02*
X63290000Y-137500000D01*
X58840000Y-139300000D02*
G75*
G03*
X63278478Y-141138478I2600000J0D01*
G01*
X63278478Y-137461522D02*
G75*
G03*
X58840000Y-139300000I-1838478J-1838478D01*
G01*
%TD*%
M02*
